<?xml version="1.0" encoding="UTF-8" standalone="no"?><svg xmlns="http://www.w3.org/2000/svg" xmlns:xlink="http://www.w3.org/1999/xlink" contentScriptType="application/ecmascript" contentStyleType="text/css" height="364px" preserveAspectRatio="none" style="width:710px;height:364px;" version="1.1" viewBox="0 0 710 364" width="710px" zoomAndPan="magnify"><defs><filter height="300%" id="fk4a55udg0th0" width="300%" x="-1" y="-1"><feGaussianBlur result="blurOut" stdDeviation="2.0"/><feColorMatrix in="blurOut" result="blurOut2" type="matrix" values="0 0 0 0 0 0 0 0 0 0 0 0 0 0 0 0 0 0 .4 0"/><feOffset dx="4.0" dy="4.0" in="blurOut2" result="blurOut3"/><feBlend in="SourceGraphic" in2="blurOut3" mode="normal"/></filter></defs><g><!--entity Main Load Balancer--><rect fill="#FEFECE" filter="url(#fk4a55udg0th0)" height="36.2969" style="stroke: #000000; stroke-width: 1.5;" width="153" x="269" y="8"/><text fill="#000000" font-family="sans-serif" font-size="14" lengthAdjust="spacingAndGlyphs" textLength="133" x="279" y="30.9951">Main Load Balancer</text><!--entity Secondary Load Balancer--><rect fill="#FEFECE" filter="url(#fk4a55udg0th0)" height="36.2969" style="stroke: #000000; stroke-width: 1.5;" width="194" x="248.5" y="210"/><text fill="#000000" font-family="sans-serif" font-size="14" lengthAdjust="spacingAndGlyphs" textLength="174" x="258.5" y="232.9951">Secondary Load Balancer</text><!--entity Node A: 7.10.0--><polygon fill="#FEFECE" filter="url(#fk4a55udg0th0)" points="6,114,16,104,149,104,149,140.2969,139,150.2969,6,150.2969,6,114" style="stroke: #000000; stroke-width: 1.5;"/><line style="stroke: #000000; stroke-width: 1.5;" x1="139" x2="148" y1="114" y2="105"/><line style="stroke: #000000; stroke-width: 1.5;" x1="6" x2="139" y1="114" y2="114"/><line style="stroke: #000000; stroke-width: 1.5;" x1="139" x2="139" y1="114" y2="150.2969"/><text fill="#000000" font-family="sans-serif" font-size="14" lengthAdjust="spacingAndGlyphs" textLength="103" x="21" y="136.9951">Node A: 7.10.0</text><!--entity Node B: 7.10.0--><polygon fill="#FEFECE" filter="url(#fk4a55udg0th0)" points="184.5,114,194.5,104,328.5,104,328.5,140.2969,318.5,150.2969,184.5,150.2969,184.5,114" style="stroke: #000000; stroke-width: 1.5;"/><line style="stroke: #000000; stroke-width: 1.5;" x1="318.5" x2="327.5" y1="114" y2="105"/><line style="stroke: #000000; stroke-width: 1.5;" x1="184.5" x2="318.5" y1="114" y2="114"/><line style="stroke: #000000; stroke-width: 1.5;" x1="318.5" x2="318.5" y1="114" y2="150.2969"/><text fill="#000000" font-family="sans-serif" font-size="14" lengthAdjust="spacingAndGlyphs" textLength="104" x="199.5" y="136.9951">Node B: 7.10.0</text><!--entity Node C: 7.10.0--><polygon fill="#FEFECE" filter="url(#fk4a55udg0th0)" points="363.5,114,373.5,104,507.5,104,507.5,140.2969,497.5,150.2969,363.5,150.2969,363.5,114" style="stroke: #000000; stroke-width: 1.5;"/><line style="stroke: #000000; stroke-width: 1.5;" x1="497.5" x2="506.5" y1="114" y2="105"/><line style="stroke: #000000; stroke-width: 1.5;" x1="363.5" x2="497.5" y1="114" y2="114"/><line style="stroke: #000000; stroke-width: 1.5;" x1="497.5" x2="497.5" y1="114" y2="150.2969"/><text fill="#000000" font-family="sans-serif" font-size="14" lengthAdjust="spacingAndGlyphs" textLength="104" x="378.5" y="136.9951">Node C: 7.10.0</text><!--entity Node D: 7.10.0--><polygon fill="#FEFECE" filter="url(#fk4a55udg0th0)" points="543,114,553,104,688,104,688,140.2969,678,150.2969,543,150.2969,543,114" style="stroke: #000000; stroke-width: 1.5;"/><line style="stroke: #000000; stroke-width: 1.5;" x1="678" x2="687" y1="114" y2="105"/><line style="stroke: #000000; stroke-width: 1.5;" x1="543" x2="678" y1="114" y2="114"/><line style="stroke: #000000; stroke-width: 1.5;" x1="678" x2="678" y1="114" y2="150.2969"/><text fill="#000000" font-family="sans-serif" font-size="14" lengthAdjust="spacingAndGlyphs" textLength="105" x="558" y="136.9951">Node D: 7.10.0</text><!--entity Node E: x.y.z--><polygon fill="#FEFECE" filter="url(#fk4a55udg0th0)" points="281,316,291,306,410,306,410,342.2969,400,352.2969,281,352.2969,281,316" style="stroke: #000000; stroke-width: 1.5;"/><line style="stroke: #000000; stroke-width: 1.5;" x1="400" x2="409" y1="316" y2="307"/><line style="stroke: #000000; stroke-width: 1.5;" x1="281" x2="400" y1="316" y2="316"/><line style="stroke: #000000; stroke-width: 1.5;" x1="400" x2="400" y1="316" y2="352.2969"/><text fill="#000000" font-family="sans-serif" font-size="14" lengthAdjust="spacingAndGlyphs" textLength="89" x="296" y="338.9951">Node E: x.y.z</text><!--link Main Load Balancer to Node A: 7.10.0--><path d="M299.429,44.019 C256.167,60 191.012,84.068 142.477,101.997 " fill="none" id="Main Load Balancer-Node A: 7.10.0" style="stroke: #A80036; stroke-width: 1.0;"/><polygon fill="#A80036" points="137.536,103.822,147.3645,104.4549,142.2261,102.0891,144.5919,96.9507,137.536,103.822" style="stroke: #A80036; stroke-width: 1.0;"/><!--link Main Load Balancer to Node B: 7.10.0--><path d="M329.997,44.244 C316.2,59.593 295.814,82.268 280.01,99.848 " fill="none" id="Main Load Balancer-Node B: 7.10.0" style="stroke: #A80036; stroke-width: 1.0;"/><polygon fill="#A80036" points="276.508,103.744,285.4996,99.7251,279.8507,100.0256,279.5501,94.3767,276.508,103.744" style="stroke: #A80036; stroke-width: 1.0;"/><!--link Main Load Balancer to Node C: 7.10.0--><path d="M361.177,44.244 C375.13,59.593 395.744,82.268 411.726,99.848 " fill="none" id="Main Load Balancer-Node C: 7.10.0" style="stroke: #A80036; stroke-width: 1.0;"/><polygon fill="#A80036" points="415.267,103.744,412.1738,94.3935,411.9041,100.0439,406.2536,99.7742,415.267,103.744" style="stroke: #A80036; stroke-width: 1.0;"/><!--link Main Load Balancer to Node D: 7.10.0--><path d="M391.915,44.019 C435.5,60 501.141,84.068 550.039,101.997 " fill="none" id="Main Load Balancer-Node D: 7.10.0" style="stroke: #A80036; stroke-width: 1.0;"/><polygon fill="#A80036" points="555.016,103.822,547.9434,96.9679,550.3217,102.1006,545.1891,104.4789,555.016,103.822" style="stroke: #A80036; stroke-width: 1.0;"/><!--link Secondary Load Balancer to Node E: x.y.z--><path d="M345.5,246.244 C345.5,261.2056 345.5,283.1298 345.5,300.509 " fill="none" id="Secondary Load Balancer-Node E: x.y.z" style="stroke: #A80036; stroke-width: 1.0;"/><polygon fill="#A80036" points="345.5,305.7439,349.5,296.7439,345.5,300.7439,341.5,296.7439,345.5,305.7439" style="stroke: #A80036; stroke-width: 1.0;"/><!--link Node A: 7.10.0 to Secondary Load Balancer--><path d="M137.311,150.094 C184.495,167.524 249.599,191.574 294.376,208.115 " fill="none" id="Node A: 7.10.0-Secondary Load Balancer" style="stroke: #A80036; stroke-width: 1.0;"/><polygon fill="#A80036" points="299.188,209.892,292.1321,203.0207,294.4979,208.1591,289.3595,210.5249,299.188,209.892" style="stroke: #A80036; stroke-width: 1.0;"/><!--link Node B: 7.10.0 to Secondary Load Balancer--><path d="M276.695,150.465 C291.636,167.084 311.849,189.568 326.498,205.863 " fill="none" id="Node B: 7.10.0-Secondary Load Balancer" style="stroke: #A80036; stroke-width: 1.0;"/><polygon fill="#A80036" points="330.096,209.865,327.0521,200.4983,326.7526,206.1473,321.1037,205.8478,330.096,209.865" style="stroke: #A80036; stroke-width: 1.0;"/><!--link Node C: 7.10.0 to Secondary Load Balancer--><path d="M415.078,150.465 C399.969,167.084 379.529,189.568 364.716,205.863 " fill="none" id="Node C: 7.10.0-Secondary Load Balancer" style="stroke: #A80036; stroke-width: 1.0;"/><polygon fill="#A80036" points="361.077,209.865,370.0904,205.8952,364.4399,206.1649,364.1702,200.5145,361.077,209.865" style="stroke: #A80036; stroke-width: 1.0;"/><!--link Node D: 7.10.0 to Secondary Load Balancer--><path d="M555.243,150.094 C507.707,167.524 442.116,191.574 397.006,208.115 " fill="none" id="Node D: 7.10.0-Secondary Load Balancer" style="stroke: #A80036; stroke-width: 1.0;"/><polygon fill="#A80036" points="392.158,209.892,401.9849,210.5489,396.8523,208.1706,399.2306,203.0379,392.158,209.892" style="stroke: #A80036; stroke-width: 1.0;"/><!--
@startuml
rectangle "Main Load Balancer"
rectangle "Secondary Load Balancer"

node "Node A: 7.10.0"
node "Node B: 7.10.0"
node "Node C: 7.10.0"
node "Node D: 7.10.0"
node "Node E: x.y.z"

[Main Load Balancer] - -> [Node A: 7.10.0]
[Main Load Balancer] - -> [Node B: 7.10.0]
[Main Load Balancer] - -> [Node C: 7.10.0]
[Main Load Balancer] - -> [Node D: 7.10.0]
[Secondary Load Balancer] - -> [Node E: x.y.z]

[Node A: 7.10.0] - -> [Secondary Load Balancer]
[Node B: 7.10.0] - -> [Secondary Load Balancer]
[Node C: 7.10.0] - -> [Secondary Load Balancer]
[Node D: 7.10.0] - -> [Secondary Load Balancer]


@enduml

PlantUML version 1.2017.15(Mon Jul 03 18:45:34 CEST 2017)
(GPL source distribution)
Java Runtime: Java(TM) SE Runtime Environment
JVM: Java HotSpot(TM) 64-Bit Server VM
Java Version: 1.8.0_152-b16
Operating System: Linux
OS Version: 4.9.0-5-amd64
Default Encoding: UTF-8
Language: en
Country: US
--></g></svg>