<?xml version="1.0" encoding="UTF-8" standalone="no"?><svg xmlns="http://www.w3.org/2000/svg" xmlns:xlink="http://www.w3.org/1999/xlink" contentScriptType="application/ecmascript" contentStyleType="text/css" height="162px" preserveAspectRatio="none" style="width:845px;height:162px;" version="1.1" viewBox="0 0 845 162" width="845px" zoomAndPan="magnify"><defs><filter height="300%" id="f6v7fh6smhqst" width="300%" x="-1" y="-1"><feGaussianBlur result="blurOut" stdDeviation="2.0"/><feColorMatrix in="blurOut" result="blurOut2" type="matrix" values="0 0 0 0 0 0 0 0 0 0 0 0 0 0 0 0 0 0 .4 0"/><feOffset dx="4.0" dy="4.0" in="blurOut2" result="blurOut3"/><feBlend in="SourceGraphic" in2="blurOut3" mode="normal"/></filter></defs><g><!--entity Main Load Balancer--><rect fill="#FEFECE" filter="url(#f6v7fh6smhqst)" height="36.4883" style="stroke: #000000; stroke-width: 1.5;" width="152" x="246.5" y="8"/><text fill="#000000" font-family="sans-serif" font-size="14" lengthAdjust="spacingAndGlyphs" textLength="132" x="256.5" y="31.5352">Main Load Balancer</text><!--entity Secondary Load Balancer--><rect fill="#FEFECE" filter="url(#f6v7fh6smhqst)" height="36.4883" style="stroke: #000000; stroke-width: 1.5;" width="190" x="644.5" y="8"/><text fill="#000000" font-family="sans-serif" font-size="14" lengthAdjust="spacingAndGlyphs" textLength="170" x="654.5" y="31.5352">Secondary Load Balancer</text><!--entity Node A: 7.6.3--><polygon fill="#FEFECE" filter="url(#f6v7fh6smhqst)" points="6,114,16,104,139,104,139,140.4883,129,150.4883,6,150.4883,6,114" style="stroke: #000000; stroke-width: 1.5;"/><line style="stroke: #000000; stroke-width: 1.5;" x1="129" x2="138" y1="114" y2="105"/><line style="stroke: #000000; stroke-width: 1.5;" x1="6" x2="129" y1="114" y2="114"/><line style="stroke: #000000; stroke-width: 1.5;" x1="129" x2="129" y1="114" y2="150.4883"/><text fill="#000000" font-family="sans-serif" font-size="14" lengthAdjust="spacingAndGlyphs" textLength="93" x="21" y="137.5352">Node A: 7.6.3</text><!--entity Node B: 7.6.3--><polygon fill="#FEFECE" filter="url(#f6v7fh6smhqst)" points="174,114,184,104,305,104,305,140.4883,295,150.4883,174,150.4883,174,114" style="stroke: #000000; stroke-width: 1.5;"/><line style="stroke: #000000; stroke-width: 1.5;" x1="295" x2="304" y1="114" y2="105"/><line style="stroke: #000000; stroke-width: 1.5;" x1="174" x2="295" y1="114" y2="114"/><line style="stroke: #000000; stroke-width: 1.5;" x1="295" x2="295" y1="114" y2="150.4883"/><text fill="#000000" font-family="sans-serif" font-size="14" lengthAdjust="spacingAndGlyphs" textLength="91" x="189" y="137.5352">Node B: 7.6.3</text><!--entity Node C: 7.6.3--><polygon fill="#FEFECE" filter="url(#f6v7fh6smhqst)" points="340,114,350,104,473,104,473,140.4883,463,150.4883,340,150.4883,340,114" style="stroke: #000000; stroke-width: 1.5;"/><line style="stroke: #000000; stroke-width: 1.5;" x1="463" x2="472" y1="114" y2="105"/><line style="stroke: #000000; stroke-width: 1.5;" x1="340" x2="463" y1="114" y2="114"/><line style="stroke: #000000; stroke-width: 1.5;" x1="463" x2="463" y1="114" y2="150.4883"/><text fill="#000000" font-family="sans-serif" font-size="14" lengthAdjust="spacingAndGlyphs" textLength="93" x="355" y="137.5352">Node C: 7.6.3</text><!--entity Node D: 7.6.3--><polygon fill="#FEFECE" filter="url(#f6v7fh6smhqst)" points="508,114,518,104,641,104,641,140.4883,631,150.4883,508,150.4883,508,114" style="stroke: #000000; stroke-width: 1.5;"/><line style="stroke: #000000; stroke-width: 1.5;" x1="631" x2="640" y1="114" y2="105"/><line style="stroke: #000000; stroke-width: 1.5;" x1="508" x2="631" y1="114" y2="114"/><line style="stroke: #000000; stroke-width: 1.5;" x1="631" x2="631" y1="114" y2="150.4883"/><text fill="#000000" font-family="sans-serif" font-size="14" lengthAdjust="spacingAndGlyphs" textLength="93" x="523" y="137.5352">Node D: 7.6.3</text><!--entity Node E: 7.10--><polygon fill="#FEFECE" filter="url(#f6v7fh6smhqst)" points="676,114,686,104,803,104,803,140.4883,793,150.4883,676,150.4883,676,114" style="stroke: #000000; stroke-width: 1.5;"/><line style="stroke: #000000; stroke-width: 1.5;" x1="793" x2="802" y1="114" y2="105"/><line style="stroke: #000000; stroke-width: 1.5;" x1="676" x2="793" y1="114" y2="114"/><line style="stroke: #000000; stroke-width: 1.5;" x1="793" x2="793" y1="114" y2="150.4883"/><text fill="#000000" font-family="sans-serif" font-size="14" lengthAdjust="spacingAndGlyphs" textLength="87" x="691" y="137.5352">Node E: 7.10</text><!--link Main Load Balancer to Node A: 7.6.3--><path d="M279.523,44.019 C239.249,59.9676 178.634,83.971 133.387,101.8887 " fill="none" id="Main Load Balancer-Node A: 7.6.3" style="stroke: #A80036; stroke-width: 1.0;"/><polygon fill="#A80036" points="128.504,103.8224,138.3446,104.2268,133.1526,101.981,135.3983,96.7891,128.504,103.8224" style="stroke: #A80036; stroke-width: 1.0;"/><!--link Main Load Balancer to Node B: 7.6.3--><path d="M308.043,44.244 C295.175,59.5925 276.164,82.2685 261.425,99.8481 " fill="none" id="Main Load Balancer-Node B: 7.6.3" style="stroke: #A80036; stroke-width: 1.0;"/><polygon fill="#A80036" points="258.159,103.7439,267.0057,99.4154,261.3707,99.9118,260.8743,94.2767,258.159,103.7439" style="stroke: #A80036; stroke-width: 1.0;"/><!--link Main Load Balancer to Node C: 7.6.3--><path d="M337.132,44.244 C350.154,59.5925 369.394,82.2685 384.311,99.8481 " fill="none" id="Main Load Balancer-Node C: 7.6.3" style="stroke: #A80036; stroke-width: 1.0;"/><polygon fill="#A80036" points="387.616,103.7439,384.8435,94.2933,384.3812,99.9313,378.7433,99.469,387.616,103.7439" style="stroke: #A80036; stroke-width: 1.0;"/><!--link Main Load Balancer to Node D: 7.6.3--><path d="M365.82,44.019 C406.417,59.9676 467.517,83.971 513.126,101.8887 " fill="none" id="Main Load Balancer-Node D: 7.6.3" style="stroke: #A80036; stroke-width: 1.0;"/><polygon fill="#A80036" points="518.048,103.8224,511.1343,96.8081,513.3944,101.9939,508.2086,104.2539,518.048,103.8224" style="stroke: #A80036; stroke-width: 1.0;"/><!--link Secondary Load Balancer to Node E: 7.10--><path d="M739.5,44.244 C739.5,59.2056 739.5,81.1298 739.5,98.509 " fill="none" id="Secondary Load Balancer-Node E: 7.10" style="stroke: #A80036; stroke-width: 1.0;"/><polygon fill="#A80036" points="739.5,103.7439,743.5,94.7439,739.5,98.7439,735.5,94.7439,739.5,103.7439" style="stroke: #A80036; stroke-width: 1.0;"/><!--
@startuml
rectangle "Main Load Balancer"
rectangle "Secondary Load Balancer"

node "Node A: 7.6.3"
node "Node B: 7.6.3"
node "Node C: 7.6.3"
node "Node D: 7.6.3"
node "Node E: 7.10"

[Main Load Balancer] - -> [Node A: 7.6.3]
[Main Load Balancer] - -> [Node B: 7.6.3]
[Main Load Balancer] - -> [Node C: 7.6.3]
[Main Load Balancer] - -> [Node D: 7.6.3]
[Secondary Load Balancer] - -> [Node E: 7.10]


@enduml

PlantUML version 1.2017.14(Mon Jun 05 11:56:32 CEST 2017)
(GPL source distribution)
Java Runtime: Java(TM) SE Runtime Environment
JVM: Java HotSpot(TM) 64-Bit Server VM
Java Version: 1.8.0_121-b13
Operating System: Mac OS X
OS Version: 10.12.6
Default Encoding: UTF-8
Language: en
Country: US
--></g></svg>