<?xml version="1.0" encoding="UTF-8" standalone="no"?><svg xmlns="http://www.w3.org/2000/svg" xmlns:xlink="http://www.w3.org/1999/xlink" contentScriptType="application/ecmascript" contentStyleType="text/css" height="267px" preserveAspectRatio="none" style="width:874px;height:267px;" version="1.1" viewBox="0 0 874 267" width="874px" zoomAndPan="magnify"><defs><filter height="300%" id="f8mxuf1y5b83i" width="300%" x="-1" y="-1"><feGaussianBlur result="blurOut" stdDeviation="2.0"/><feColorMatrix in="blurOut" result="blurOut2" type="matrix" values="0 0 0 0 0 0 0 0 0 0 0 0 0 0 0 0 0 0 .4 0"/><feOffset dx="4.0" dy="4.0" in="blurOut2" result="blurOut3"/><feBlend in="SourceGraphic" in2="blurOut3" mode="normal"/></filter></defs><g><!--entity Main Load Balancer--><rect fill="#FEFECE" filter="url(#f8mxuf1y5b83i)" height="36.2969" style="stroke: #000000; stroke-width: 1.5;" width="153" x="269" y="8"/><text fill="#000000" font-family="sans-serif" font-size="14" lengthAdjust="spacingAndGlyphs" textLength="133" x="279" y="30.9951">Main Load Balancer</text><!--entity Node A: 7.10.0--><polygon fill="#FEFECE" filter="url(#f8mxuf1y5b83i)" points="6,114,16,104,149,104,149,140.2969,139,150.2969,6,150.2969,6,114" style="stroke: #000000; stroke-width: 1.5;"/><line style="stroke: #000000; stroke-width: 1.5;" x1="139" x2="148" y1="114" y2="105"/><line style="stroke: #000000; stroke-width: 1.5;" x1="6" x2="139" y1="114" y2="114"/><line style="stroke: #000000; stroke-width: 1.5;" x1="139" x2="139" y1="114" y2="150.2969"/><text fill="#000000" font-family="sans-serif" font-size="14" lengthAdjust="spacingAndGlyphs" textLength="103" x="21" y="136.9951">Node A: 7.10.0</text><!--entity Node B: 7.10.0--><polygon fill="#FEFECE" filter="url(#f8mxuf1y5b83i)" points="184.5,114,194.5,104,328.5,104,328.5,140.2969,318.5,150.2969,184.5,150.2969,184.5,114" style="stroke: #000000; stroke-width: 1.5;"/><line style="stroke: #000000; stroke-width: 1.5;" x1="318.5" x2="327.5" y1="114" y2="105"/><line style="stroke: #000000; stroke-width: 1.5;" x1="184.5" x2="318.5" y1="114" y2="114"/><line style="stroke: #000000; stroke-width: 1.5;" x1="318.5" x2="318.5" y1="114" y2="150.2969"/><text fill="#000000" font-family="sans-serif" font-size="14" lengthAdjust="spacingAndGlyphs" textLength="104" x="199.5" y="136.9951">Node B: 7.10.0</text><!--entity Node C: 7.10.0--><polygon fill="#FEFECE" filter="url(#f8mxuf1y5b83i)" points="363.5,114,373.5,104,507.5,104,507.5,140.2969,497.5,150.2969,363.5,150.2969,363.5,114" style="stroke: #000000; stroke-width: 1.5;"/><line style="stroke: #000000; stroke-width: 1.5;" x1="497.5" x2="506.5" y1="114" y2="105"/><line style="stroke: #000000; stroke-width: 1.5;" x1="363.5" x2="497.5" y1="114" y2="114"/><line style="stroke: #000000; stroke-width: 1.5;" x1="497.5" x2="497.5" y1="114" y2="150.2969"/><text fill="#000000" font-family="sans-serif" font-size="14" lengthAdjust="spacingAndGlyphs" textLength="104" x="378.5" y="136.9951">Node C: 7.10.0</text><!--entity Node D: 7.10.0--><polygon fill="#FEFECE" filter="url(#f8mxuf1y5b83i)" points="543,114,553,104,688,104,688,140.2969,678,150.2969,543,150.2969,543,114" style="stroke: #000000; stroke-width: 1.5;"/><line style="stroke: #000000; stroke-width: 1.5;" x1="678" x2="687" y1="114" y2="105"/><line style="stroke: #000000; stroke-width: 1.5;" x1="543" x2="678" y1="114" y2="114"/><line style="stroke: #000000; stroke-width: 1.5;" x1="678" x2="678" y1="114" y2="150.2969"/><text fill="#000000" font-family="sans-serif" font-size="14" lengthAdjust="spacingAndGlyphs" textLength="105" x="558" y="136.9951">Node D: 7.10.0</text><!--entity Node E: x.y.z--><polygon fill="#FEFECE" filter="url(#f8mxuf1y5b83i)" points="723,114,733,104,852,104,852,140.2969,842,150.2969,723,150.2969,723,114" style="stroke: #000000; stroke-width: 1.5;"/><line style="stroke: #000000; stroke-width: 1.5;" x1="842" x2="851" y1="114" y2="105"/><line style="stroke: #000000; stroke-width: 1.5;" x1="723" x2="842" y1="114" y2="114"/><line style="stroke: #000000; stroke-width: 1.5;" x1="842" x2="842" y1="114" y2="150.2969"/><text fill="#000000" font-family="sans-serif" font-size="14" lengthAdjust="spacingAndGlyphs" textLength="89" x="738" y="136.9951">Node E: x.y.z</text><!--entity OX DB--><path d="M403,220 C403,210 435.5,210 435.5,210 C435.5,210 468,210 468,220 L468,245.2969 C468,255.2969 435.5,255.2969 435.5,255.2969 C435.5,255.2969 403,255.2969 403,245.2969 L403,220 " fill="#FEFECE" filter="url(#f8mxuf1y5b83i)" style="stroke: #000000; stroke-width: 1.5;"/><path d="M403,220 C403,230 435.5,230 435.5,230 C435.5,230 468,230 468,220 " fill="none" style="stroke: #000000; stroke-width: 1.5;"/><text fill="#000000" font-family="sans-serif" font-size="14" lengthAdjust="spacingAndGlyphs" textLength="45" x="413" y="246.9951">OX DB</text><!--link Main Load Balancer to Node A: 7.10.0--><path d="M299.429,44.019 C256.167,60 191.012,84.068 142.477,101.997 " fill="none" id="Main Load Balancer-Node A: 7.10.0" style="stroke: #A80036; stroke-width: 1.0;"/><polygon fill="#A80036" points="137.536,103.822,147.3645,104.4549,142.2261,102.0891,144.5919,96.9507,137.536,103.822" style="stroke: #A80036; stroke-width: 1.0;"/><!--link Main Load Balancer to Node B: 7.10.0--><path d="M329.997,44.244 C316.2,59.593 295.814,82.268 280.01,99.848 " fill="none" id="Main Load Balancer-Node B: 7.10.0" style="stroke: #A80036; stroke-width: 1.0;"/><polygon fill="#A80036" points="276.508,103.744,285.4996,99.7251,279.8507,100.0256,279.5501,94.3767,276.508,103.744" style="stroke: #A80036; stroke-width: 1.0;"/><!--link Main Load Balancer to Node C: 7.10.0--><path d="M361.177,44.244 C375.13,59.593 395.744,82.268 411.726,99.848 " fill="none" id="Main Load Balancer-Node C: 7.10.0" style="stroke: #A80036; stroke-width: 1.0;"/><polygon fill="#A80036" points="415.267,103.744,412.1738,94.3935,411.9041,100.0439,406.2536,99.7742,415.267,103.744" style="stroke: #A80036; stroke-width: 1.0;"/><!--link Main Load Balancer to Node D: 7.10.0--><path d="M391.915,44.019 C435.5,60 501.141,84.068 550.039,101.997 " fill="none" id="Main Load Balancer-Node D: 7.10.0" style="stroke: #A80036; stroke-width: 1.0;"/><polygon fill="#A80036" points="555.016,103.822,547.9434,96.9679,550.3217,102.1006,545.1891,104.4789,555.016,103.822" style="stroke: #A80036; stroke-width: 1.0;"/><!--link Node A: 7.10.0 to OX DB--><path d="M149.086,148.696 C224.108,170.3853 339.076,203.6233 397.935,220.6396 " fill="none" id="Node A: 7.10.0-OX DB" style="stroke: #A80036; stroke-width: 1.0;"/><polygon fill="#A80036" points="402.763,222.0357,395.2279,215.6936,397.9597,220.6471,393.0062,223.3789,402.763,222.0357" style="stroke: #A80036; stroke-width: 1.0;"/><!--link Node B: 7.10.0 to OX DB--><path d="M294.9,150.203 C325.546,167.9234 368.214,192.5943 398.489,210.0998 " fill="none" id="Node B: 7.10.0-OX DB" style="stroke: #A80036; stroke-width: 1.0;"/><polygon fill="#A80036" points="402.863,212.6289,397.074,204.661,398.5345,210.1261,393.0694,211.5866,402.863,212.6289" style="stroke: #A80036; stroke-width: 1.0;"/><!--link Node C: 7.10.0 to OX DB--><path d="M435.5,150.203 C435.5,166.1368 435.5,187.6902 435.5,204.6009 " fill="none" id="Node C: 7.10.0-OX DB" style="stroke: #A80036; stroke-width: 1.0;"/><polygon fill="#A80036" points="435.5,209.6886,439.5,200.6886,435.5,204.6886,431.5,200.6886,435.5,209.6886" style="stroke: #A80036; stroke-width: 1.0;"/><!--link Node D: 7.10.0 to OX DB--><path d="M576.885,150.203 C545.97,167.98 502.888,192.752 472.426,210.2673 " fill="none" id="Node D: 7.10.0-OX DB" style="stroke: #A80036; stroke-width: 1.0;"/><polygon fill="#A80036" points="468.027,212.7972,477.8232,211.7802,472.3619,210.3056,473.8366,204.8443,468.027,212.7972" style="stroke: #A80036; stroke-width: 1.0;"/><!--link Node E: x.y.z to OX DB--><path d="M722.938,146.983 C649.772,168.4966 532.959,202.8437 473.279,220.3918 " fill="none" id="Node E: x.y.z-OX DB" style="stroke: #A80036; stroke-width: 1.0;"/><polygon fill="#A80036" points="468.383,221.8313,478.1461,223.1282,473.1797,220.42,475.888,215.4536,468.383,221.8313" style="stroke: #A80036; stroke-width: 1.0;"/><!--
@startuml
rectangle "Main Load Balancer"

node "Node A: 7.10.0"
node "Node B: 7.10.0"
node "Node C: 7.10.0"
node "Node D: 7.10.0"
node "Node E: x.y.z"

database "OX DB"

[Main Load Balancer] - -> [Node A: 7.10.0]
[Main Load Balancer] - -> [Node B: 7.10.0]
[Main Load Balancer] - -> [Node C: 7.10.0]
[Main Load Balancer] - -> [Node D: 7.10.0]

[Node A: 7.10.0] - -> [OX DB]
[Node B: 7.10.0] - -> [OX DB]
[Node C: 7.10.0] - -> [OX DB]
[Node D: 7.10.0] - -> [OX DB]
[Node E: x.y.z] - -> [OX DB]

@enduml

PlantUML version 1.2017.15(Mon Jul 03 18:45:34 CEST 2017)
(GPL source distribution)
Java Runtime: Java(TM) SE Runtime Environment
JVM: Java HotSpot(TM) 64-Bit Server VM
Java Version: 1.8.0_152-b16
Operating System: Linux
OS Version: 4.9.0-5-amd64
Default Encoding: UTF-8
Language: en
Country: US
--></g></svg>