<?xml version="1.0" encoding="UTF-8" standalone="no"?><svg xmlns="http://www.w3.org/2000/svg" xmlns:xlink="http://www.w3.org/1999/xlink" contentScriptType="application/ecmascript" contentStyleType="text/css" height="364px" preserveAspectRatio="none" style="width:663px;height:364px;" version="1.1" viewBox="0 0 663 364" width="663px" zoomAndPan="magnify"><defs><filter height="300%" id="f1jqmxprlsp1bg" width="300%" x="-1" y="-1"><feGaussianBlur result="blurOut" stdDeviation="2.0"/><feColorMatrix in="blurOut" result="blurOut2" type="matrix" values="0 0 0 0 0 0 0 0 0 0 0 0 0 0 0 0 0 0 .4 0"/><feOffset dx="4.0" dy="4.0" in="blurOut2" result="blurOut3"/><feBlend in="SourceGraphic" in2="blurOut3" mode="normal"/></filter></defs><g><!--entity Main Load Balancer--><rect fill="#FEFECE" filter="url(#f1jqmxprlsp1bg)" height="36.4883" style="stroke: #000000; stroke-width: 1.5;" width="152" x="246.5" y="8"/><text fill="#000000" font-family="sans-serif" font-size="14" lengthAdjust="spacingAndGlyphs" textLength="132" x="256.5" y="31.5352">Main Load Balancer</text><!--entity Secondary Load Balancer--><rect fill="#FEFECE" filter="url(#f1jqmxprlsp1bg)" height="36.4883" style="stroke: #000000; stroke-width: 1.5;" width="190" x="227.5" y="210"/><text fill="#000000" font-family="sans-serif" font-size="14" lengthAdjust="spacingAndGlyphs" textLength="170" x="237.5" y="233.5352">Secondary Load Balancer</text><!--entity Node A: 7.6.3--><polygon fill="#FEFECE" filter="url(#f1jqmxprlsp1bg)" points="6,114,16,104,139,104,139,140.4883,129,150.4883,6,150.4883,6,114" style="stroke: #000000; stroke-width: 1.5;"/><line style="stroke: #000000; stroke-width: 1.5;" x1="129" x2="138" y1="114" y2="105"/><line style="stroke: #000000; stroke-width: 1.5;" x1="6" x2="129" y1="114" y2="114"/><line style="stroke: #000000; stroke-width: 1.5;" x1="129" x2="129" y1="114" y2="150.4883"/><text fill="#000000" font-family="sans-serif" font-size="14" lengthAdjust="spacingAndGlyphs" textLength="93" x="21" y="137.5352">Node A: 7.6.3</text><!--entity Node B: 7.6.3--><polygon fill="#FEFECE" filter="url(#f1jqmxprlsp1bg)" points="174,114,184,104,305,104,305,140.4883,295,150.4883,174,150.4883,174,114" style="stroke: #000000; stroke-width: 1.5;"/><line style="stroke: #000000; stroke-width: 1.5;" x1="295" x2="304" y1="114" y2="105"/><line style="stroke: #000000; stroke-width: 1.5;" x1="174" x2="295" y1="114" y2="114"/><line style="stroke: #000000; stroke-width: 1.5;" x1="295" x2="295" y1="114" y2="150.4883"/><text fill="#000000" font-family="sans-serif" font-size="14" lengthAdjust="spacingAndGlyphs" textLength="91" x="189" y="137.5352">Node B: 7.6.3</text><!--entity Node C: 7.6.3--><polygon fill="#FEFECE" filter="url(#f1jqmxprlsp1bg)" points="340,114,350,104,473,104,473,140.4883,463,150.4883,340,150.4883,340,114" style="stroke: #000000; stroke-width: 1.5;"/><line style="stroke: #000000; stroke-width: 1.5;" x1="463" x2="472" y1="114" y2="105"/><line style="stroke: #000000; stroke-width: 1.5;" x1="340" x2="463" y1="114" y2="114"/><line style="stroke: #000000; stroke-width: 1.5;" x1="463" x2="463" y1="114" y2="150.4883"/><text fill="#000000" font-family="sans-serif" font-size="14" lengthAdjust="spacingAndGlyphs" textLength="93" x="355" y="137.5352">Node C: 7.6.3</text><!--entity Node D: 7.6.3--><polygon fill="#FEFECE" filter="url(#f1jqmxprlsp1bg)" points="508,114,518,104,641,104,641,140.4883,631,150.4883,508,150.4883,508,114" style="stroke: #000000; stroke-width: 1.5;"/><line style="stroke: #000000; stroke-width: 1.5;" x1="631" x2="640" y1="114" y2="105"/><line style="stroke: #000000; stroke-width: 1.5;" x1="508" x2="631" y1="114" y2="114"/><line style="stroke: #000000; stroke-width: 1.5;" x1="631" x2="631" y1="114" y2="150.4883"/><text fill="#000000" font-family="sans-serif" font-size="14" lengthAdjust="spacingAndGlyphs" textLength="93" x="523" y="137.5352">Node D: 7.6.3</text><!--entity Node E: 7.10--><polygon fill="#FEFECE" filter="url(#f1jqmxprlsp1bg)" points="259,316,269,306,386,306,386,342.4883,376,352.4883,259,352.4883,259,316" style="stroke: #000000; stroke-width: 1.5;"/><line style="stroke: #000000; stroke-width: 1.5;" x1="376" x2="385" y1="316" y2="307"/><line style="stroke: #000000; stroke-width: 1.5;" x1="259" x2="376" y1="316" y2="316"/><line style="stroke: #000000; stroke-width: 1.5;" x1="376" x2="376" y1="316" y2="352.4883"/><text fill="#000000" font-family="sans-serif" font-size="14" lengthAdjust="spacingAndGlyphs" textLength="87" x="274" y="339.5352">Node E: 7.10</text><!--link Main Load Balancer to Node A: 7.6.3--><path d="M279.523,44.019 C239.249,59.968 178.634,83.971 133.387,101.889 " fill="none" id="Main Load Balancer-Node A: 7.6.3" style="stroke: #A80036; stroke-width: 1.0;"/><polygon fill="#A80036" points="128.504,103.822,138.3445,104.2273,133.1528,101.9811,135.399,96.7893,128.504,103.822" style="stroke: #A80036; stroke-width: 1.0;"/><!--link Main Load Balancer to Node B: 7.6.3--><path d="M308.043,44.244 C295.175,59.593 276.164,82.268 261.425,99.848 " fill="none" id="Main Load Balancer-Node B: 7.6.3" style="stroke: #A80036; stroke-width: 1.0;"/><polygon fill="#A80036" points="258.159,103.744,267.0061,99.4163,261.371,99.9122,260.8751,94.2771,258.159,103.744" style="stroke: #A80036; stroke-width: 1.0;"/><!--link Main Load Balancer to Node C: 7.6.3--><path d="M337.132,44.244 C350.154,59.593 369.394,82.268 384.311,99.848 " fill="none" id="Main Load Balancer-Node C: 7.6.3" style="stroke: #A80036; stroke-width: 1.0;"/><polygon fill="#A80036" points="387.616,103.744,384.8424,94.2937,384.3808,99.9317,378.7428,99.4701,387.616,103.744" style="stroke: #A80036; stroke-width: 1.0;"/><!--link Main Load Balancer to Node D: 7.6.3--><path d="M365.82,44.019 C406.417,59.968 467.517,83.971 513.126,101.889 " fill="none" id="Main Load Balancer-Node D: 7.6.3" style="stroke: #A80036; stroke-width: 1.0;"/><polygon fill="#A80036" points="518.048,103.822,511.134,96.808,513.3943,101.9936,508.2086,104.2539,518.048,103.822" style="stroke: #A80036; stroke-width: 1.0;"/><!--link Secondary Load Balancer to Node E: 7.10--><path d="M322.5,246.244 C322.5,261.2056 322.5,283.1298 322.5,300.509 " fill="none" id="Secondary Load Balancer-Node E: 7.10" style="stroke: #A80036; stroke-width: 1.0;"/><polygon fill="#A80036" points="322.5,305.7439,326.5,296.7439,322.5,300.7439,318.5,296.7439,322.5,305.7439" style="stroke: #A80036; stroke-width: 1.0;"/><!--link Node A: 7.6.3 to Secondary Load Balancer--><path d="M128.294,150.094 C172.22,167.489 232.795,191.477 274.556,208.014 " fill="none" id="Node A: 7.6.3-Secondary Load Balancer" style="stroke: #A80036; stroke-width: 1.0;"/><polygon fill="#A80036" points="279.298,209.892,272.4037,202.8586,274.6494,208.0506,269.4574,210.2963,279.298,209.892" style="stroke: #A80036; stroke-width: 1.0;"/><!--link Node B: 7.6.3 to Secondary Load Balancer--><path d="M258.334,150.465 C272.267,167.084 291.117,189.568 304.779,205.863 " fill="none" id="Node B: 7.6.3-Secondary Load Balancer" style="stroke: #A80036; stroke-width: 1.0;"/><polygon fill="#A80036" points="308.134,209.865,305.4161,200.3986,304.9213,206.0337,299.2861,205.5389,308.134,209.865" style="stroke: #A80036; stroke-width: 1.0;"/><!--link Node C: 7.6.3 to Secondary Load Balancer--><path d="M387.439,150.465 C373.338,167.084 354.261,189.568 340.435,205.863 " fill="none" id="Node C: 7.6.3-Secondary Load Balancer" style="stroke: #A80036; stroke-width: 1.0;"/><polygon fill="#A80036" points="337.039,209.865,345.9122,205.5911,340.2742,206.0527,339.8126,200.4147,337.039,209.865" style="stroke: #A80036; stroke-width: 1.0;"/><!--link Node D: 7.6.3 to Secondary Load Balancer--><path d="M518.26,150.094 C473.983,167.489 412.923,191.477 370.828,208.014 " fill="none" id="Node D: 7.6.3-Secondary Load Balancer" style="stroke: #A80036; stroke-width: 1.0;"/><polygon fill="#A80036" points="366.047,209.892,375.8864,210.3239,370.7007,208.0636,372.961,202.878,366.047,209.892" style="stroke: #A80036; stroke-width: 1.0;"/><!--
@startuml
rectangle "Main Load Balancer"
rectangle "Secondary Load Balancer"

node "Node A: 7.6.3"
node "Node B: 7.6.3"
node "Node C: 7.6.3"
node "Node D: 7.6.3"
node "Node E: 7.10"

[Main Load Balancer] - -> [Node A: 7.6.3]
[Main Load Balancer] - -> [Node B: 7.6.3]
[Main Load Balancer] - -> [Node C: 7.6.3]
[Main Load Balancer] - -> [Node D: 7.6.3]
[Secondary Load Balancer] - -> [Node E: 7.10]

[Node A: 7.6.3] - -> [Secondary Load Balancer]
[Node B: 7.6.3] - -> [Secondary Load Balancer]
[Node C: 7.6.3] - -> [Secondary Load Balancer]
[Node D: 7.6.3] - -> [Secondary Load Balancer]


@enduml

PlantUML version 1.2017.14(Mon Jun 05 11:56:32 CEST 2017)
(GPL source distribution)
Java Runtime: Java(TM) SE Runtime Environment
JVM: Java HotSpot(TM) 64-Bit Server VM
Java Version: 1.8.0_121-b13
Operating System: Mac OS X
OS Version: 10.12.6
Default Encoding: UTF-8
Language: en
Country: US
--></g></svg>