<?xml version="1.0" encoding="UTF-8" standalone="no"?><svg xmlns="http://www.w3.org/2000/svg" xmlns:xlink="http://www.w3.org/1999/xlink" contentScriptType="application/ecmascript" contentStyleType="text/css" height="267px" preserveAspectRatio="none" style="width:888px;height:267px;" version="1.1" viewBox="0 0 888 267" width="888px" zoomAndPan="magnify"><defs><filter height="300%" id="fn6olv5zt665v" width="300%" x="-1" y="-1"><feGaussianBlur result="blurOut" stdDeviation="2.0"/><feColorMatrix in="blurOut" result="blurOut2" type="matrix" values="0 0 0 0 0 0 0 0 0 0 0 0 0 0 0 0 0 0 .4 0"/><feOffset dx="4.0" dy="4.0" in="blurOut2" result="blurOut3"/><feBlend in="SourceGraphic" in2="blurOut3" mode="normal"/></filter></defs><g><!--entity Main Load Balancer--><rect fill="#FEFECE" filter="url(#fn6olv5zt665v)" height="36.2969" style="stroke: #000000; stroke-width: 1.5;" width="153" x="359" y="8"/><text fill="#000000" font-family="sans-serif" font-size="14" lengthAdjust="spacingAndGlyphs" textLength="133" x="369" y="30.9951">Main Load Balancer</text><!--entity Node A: 7.10.0--><polygon fill="#FEFECE" filter="url(#fn6olv5zt665v)" points="6,114,16,104,149,104,149,140.2969,139,150.2969,6,150.2969,6,114" style="stroke: #000000; stroke-width: 1.5;"/><line style="stroke: #000000; stroke-width: 1.5;" x1="139" x2="148" y1="114" y2="105"/><line style="stroke: #000000; stroke-width: 1.5;" x1="6" x2="139" y1="114" y2="114"/><line style="stroke: #000000; stroke-width: 1.5;" x1="139" x2="139" y1="114" y2="150.2969"/><text fill="#000000" font-family="sans-serif" font-size="14" lengthAdjust="spacingAndGlyphs" textLength="103" x="21" y="136.9951">Node A: 7.10.0</text><!--entity Node B: 7.10.0--><polygon fill="#FEFECE" filter="url(#fn6olv5zt665v)" points="184.5,114,194.5,104,328.5,104,328.5,140.2969,318.5,150.2969,184.5,150.2969,184.5,114" style="stroke: #000000; stroke-width: 1.5;"/><line style="stroke: #000000; stroke-width: 1.5;" x1="318.5" x2="327.5" y1="114" y2="105"/><line style="stroke: #000000; stroke-width: 1.5;" x1="184.5" x2="318.5" y1="114" y2="114"/><line style="stroke: #000000; stroke-width: 1.5;" x1="318.5" x2="318.5" y1="114" y2="150.2969"/><text fill="#000000" font-family="sans-serif" font-size="14" lengthAdjust="spacingAndGlyphs" textLength="104" x="199.5" y="136.9951">Node B: 7.10.0</text><!--entity Node C: 7.10.0--><polygon fill="#FEFECE" filter="url(#fn6olv5zt665v)" points="363.5,114,373.5,104,507.5,104,507.5,140.2969,497.5,150.2969,363.5,150.2969,363.5,114" style="stroke: #000000; stroke-width: 1.5;"/><line style="stroke: #000000; stroke-width: 1.5;" x1="497.5" x2="506.5" y1="114" y2="105"/><line style="stroke: #000000; stroke-width: 1.5;" x1="363.5" x2="497.5" y1="114" y2="114"/><line style="stroke: #000000; stroke-width: 1.5;" x1="497.5" x2="497.5" y1="114" y2="150.2969"/><text fill="#000000" font-family="sans-serif" font-size="14" lengthAdjust="spacingAndGlyphs" textLength="104" x="378.5" y="136.9951">Node C: 7.10.0</text><!--entity Node D: 7.10.0--><polygon fill="#FEFECE" filter="url(#fn6olv5zt665v)" points="543,114,553,104,688,104,688,140.2969,678,150.2969,543,150.2969,543,114" style="stroke: #000000; stroke-width: 1.5;"/><line style="stroke: #000000; stroke-width: 1.5;" x1="678" x2="687" y1="114" y2="105"/><line style="stroke: #000000; stroke-width: 1.5;" x1="543" x2="678" y1="114" y2="114"/><line style="stroke: #000000; stroke-width: 1.5;" x1="678" x2="678" y1="114" y2="150.2969"/><text fill="#000000" font-family="sans-serif" font-size="14" lengthAdjust="spacingAndGlyphs" textLength="105" x="558" y="136.9951">Node D: 7.10.0</text><!--entity Node E: 7.10.0--><polygon fill="#FEFECE" filter="url(#fn6olv5zt665v)" points="723,114,733,104,866,104,866,140.2969,856,150.2969,723,150.2969,723,114" style="stroke: #000000; stroke-width: 1.5;"/><line style="stroke: #000000; stroke-width: 1.5;" x1="856" x2="865" y1="114" y2="105"/><line style="stroke: #000000; stroke-width: 1.5;" x1="723" x2="856" y1="114" y2="114"/><line style="stroke: #000000; stroke-width: 1.5;" x1="856" x2="856" y1="114" y2="150.2969"/><text fill="#000000" font-family="sans-serif" font-size="14" lengthAdjust="spacingAndGlyphs" textLength="103" x="738" y="136.9951">Node E: 7.10.0</text><!--entity OX DB--><path d="M403,220 C403,210 435.5,210 435.5,210 C435.5,210 468,210 468,220 L468,245.2969 C468,255.2969 435.5,255.2969 435.5,255.2969 C435.5,255.2969 403,255.2969 403,245.2969 L403,220 " fill="#FEFECE" filter="url(#fn6olv5zt665v)" style="stroke: #000000; stroke-width: 1.5;"/><path d="M403,220 C403,230 435.5,230 435.5,230 C435.5,230 468,230 468,220 " fill="none" style="stroke: #000000; stroke-width: 1.5;"/><text fill="#000000" font-family="sans-serif" font-size="14" lengthAdjust="spacingAndGlyphs" textLength="45" x="413" y="246.9951">OX DB</text><!--link Main Load Balancer to Node A: 7.10.0--><path d="M373.958,44.019 C313.167,60.829 220.017,86.589 154.387,104.738 " fill="none" id="Main Load Balancer-Node A: 7.10.0" style="stroke: #A80036; stroke-width: 1.0;"/><polygon fill="#A80036" points="149.314,106.141,159.0546,107.5976,154.1331,104.8084,156.9224,99.887,149.314,106.141" style="stroke: #A80036; stroke-width: 1.0;"/><!--link Main Load Balancer to Node B: 7.10.0--><path d="M404.729,44.019 C376.242,59.774 333.544,83.389 301.28,101.233 " fill="none" id="Main Load Balancer-Node B: 7.10.0" style="stroke: #A80036; stroke-width: 1.0;"/><polygon fill="#A80036" points="296.599,103.822,306.4106,102.9666,300.9744,101.4022,302.5389,95.9659,296.599,103.822" style="stroke: #A80036; stroke-width: 1.0;"/><!--link Main Load Balancer to Node C: 7.10.0--><path d="M435.5,44.244 C435.5,59.206 435.5,81.13 435.5,98.509 " fill="none" id="Main Load Balancer-Node C: 7.10.0" style="stroke: #A80036; stroke-width: 1.0;"/><polygon fill="#A80036" points="435.5,103.744,439.5,94.744,435.5,98.744,431.5,94.744,435.5,103.744" style="stroke: #A80036; stroke-width: 1.0;"/><!--link Main Load Balancer to Node D: 7.10.0--><path d="M466.443,44.019 C495.089,59.774 538.026,83.389 570.469,101.233 " fill="none" id="Main Load Balancer-Node D: 7.10.0" style="stroke: #A80036; stroke-width: 1.0;"/><polygon fill="#A80036" points="575.177,103.822,569.2171,95.9811,570.7954,101.4133,565.3632,102.9917,575.177,103.822" style="stroke: #A80036; stroke-width: 1.0;"/><!--link Main Load Balancer to Node E: 7.10.0--><path d="M497.214,44.019 C558.272,60.856 651.884,86.671 717.715,104.825 " fill="none" id="Main Load Balancer-Node E: 7.10.0" style="stroke: #A80036; stroke-width: 1.0;"/><polygon fill="#A80036" points="722.802,106.228,715.1885,99.9803,717.9818,104.8994,713.0627,107.6926,722.802,106.228" style="stroke: #A80036; stroke-width: 1.0;"/><!--link Node A: 7.10.0 to OX DB--><path d="M149.086,148.696 C224.108,170.3853 339.076,203.6233 397.935,220.6396 " fill="none" id="Node A: 7.10.0-OX DB" style="stroke: #A80036; stroke-width: 1.0;"/><polygon fill="#A80036" points="402.763,222.0357,395.2279,215.6936,397.9597,220.6471,393.0062,223.3789,402.763,222.0357" style="stroke: #A80036; stroke-width: 1.0;"/><!--link Node B: 7.10.0 to OX DB--><path d="M294.9,150.203 C325.546,167.9234 368.214,192.5943 398.489,210.0998 " fill="none" id="Node B: 7.10.0-OX DB" style="stroke: #A80036; stroke-width: 1.0;"/><polygon fill="#A80036" points="402.863,212.6289,397.074,204.661,398.5345,210.1261,393.0694,211.5866,402.863,212.6289" style="stroke: #A80036; stroke-width: 1.0;"/><!--link Node C: 7.10.0 to OX DB--><path d="M435.5,150.203 C435.5,166.1368 435.5,187.6902 435.5,204.6009 " fill="none" id="Node C: 7.10.0-OX DB" style="stroke: #A80036; stroke-width: 1.0;"/><polygon fill="#A80036" points="435.5,209.6886,439.5,200.6886,435.5,204.6886,431.5,200.6886,435.5,209.6886" style="stroke: #A80036; stroke-width: 1.0;"/><!--link Node D: 7.10.0 to OX DB--><path d="M576.885,150.203 C545.97,167.98 502.888,192.752 472.426,210.2673 " fill="none" id="Node D: 7.10.0-OX DB" style="stroke: #A80036; stroke-width: 1.0;"/><polygon fill="#A80036" points="468.027,212.7972,477.8232,211.7802,472.3619,210.3056,473.8366,204.8443,468.027,212.7972" style="stroke: #A80036; stroke-width: 1.0;"/><!--link Node E: 7.10.0 to OX DB--><path d="M722.714,148.696 C647.482,170.3853 532.193,203.6233 473.17,220.6396 " fill="none" id="Node E: 7.10.0-OX DB" style="stroke: #A80036; stroke-width: 1.0;"/><polygon fill="#A80036" points="468.328,222.0357,478.0836,223.3875,473.1325,220.6513,475.8687,215.7002,468.328,222.0357" style="stroke: #A80036; stroke-width: 1.0;"/><!--
@startuml
rectangle "Main Load Balancer"

node "Node A: 7.10.0"
node "Node B: 7.10.0"
node "Node C: 7.10.0"
node "Node D: 7.10.0"
node "Node E: 7.10.0"

database "OX DB"

[Main Load Balancer] - -> [Node A: 7.10.0]
[Main Load Balancer] - -> [Node B: 7.10.0]
[Main Load Balancer] - -> [Node C: 7.10.0]
[Main Load Balancer] - -> [Node D: 7.10.0]
[Main Load Balancer] - -> [Node E: 7.10.0]

[Node A: 7.10.0] - -> [OX DB]
[Node B: 7.10.0] - -> [OX DB]
[Node C: 7.10.0] - -> [OX DB]
[Node D: 7.10.0] - -> [OX DB]
[Node E: 7.10.0] - -> [OX DB]

@enduml

PlantUML version 1.2017.15(Mon Jul 03 18:45:34 CEST 2017)
(GPL source distribution)
Java Runtime: Java(TM) SE Runtime Environment
JVM: Java HotSpot(TM) 64-Bit Server VM
Java Version: 1.8.0_152-b16
Operating System: Linux
OS Version: 4.9.0-5-amd64
Default Encoding: UTF-8
Language: en
Country: US
--></g></svg>