<?xml version="1.0" encoding="UTF-8" standalone="no"?><svg xmlns="http://www.w3.org/2000/svg" xmlns:xlink="http://www.w3.org/1999/xlink" contentScriptType="application/ecmascript" contentStyleType="text/css" height="267px" preserveAspectRatio="none" style="width:818px;height:267px;" version="1.1" viewBox="0 0 818 267" width="818px" zoomAndPan="magnify"><defs><filter height="300%" id="f1280ho6f9esoc" width="300%" x="-1" y="-1"><feGaussianBlur result="blurOut" stdDeviation="2.0"/><feColorMatrix in="blurOut" result="blurOut2" type="matrix" values="0 0 0 0 0 0 0 0 0 0 0 0 0 0 0 0 0 0 .4 0"/><feOffset dx="4.0" dy="4.0" in="blurOut2" result="blurOut3"/><feBlend in="SourceGraphic" in2="blurOut3" mode="normal"/></filter></defs><g><!--entity Main Load Balancer--><rect fill="#FEFECE" filter="url(#f1280ho6f9esoc)" height="36.2969" style="stroke: #000000; stroke-width: 1.5;" width="153" x="324" y="8"/><text fill="#000000" font-family="sans-serif" font-size="14" lengthAdjust="spacingAndGlyphs" textLength="133" x="334" y="30.9951">Main Load Balancer</text><!--entity Node A: x.y.z--><polygon fill="#FEFECE" filter="url(#f1280ho6f9esoc)" points="6,114,16,104,135,104,135,140.2969,125,150.2969,6,150.2969,6,114" style="stroke: #000000; stroke-width: 1.5;"/><line style="stroke: #000000; stroke-width: 1.5;" x1="125" x2="134" y1="114" y2="105"/><line style="stroke: #000000; stroke-width: 1.5;" x1="6" x2="125" y1="114" y2="114"/><line style="stroke: #000000; stroke-width: 1.5;" x1="125" x2="125" y1="114" y2="150.2969"/><text fill="#000000" font-family="sans-serif" font-size="14" lengthAdjust="spacingAndGlyphs" textLength="89" x="21" y="136.9951">Node A: x.y.z</text><!--entity Node B: x.y.z--><polygon fill="#FEFECE" filter="url(#f1280ho6f9esoc)" points="170.5,114,180.5,104,300.5,104,300.5,140.2969,290.5,150.2969,170.5,150.2969,170.5,114" style="stroke: #000000; stroke-width: 1.5;"/><line style="stroke: #000000; stroke-width: 1.5;" x1="290.5" x2="299.5" y1="114" y2="105"/><line style="stroke: #000000; stroke-width: 1.5;" x1="170.5" x2="290.5" y1="114" y2="114"/><line style="stroke: #000000; stroke-width: 1.5;" x1="290.5" x2="290.5" y1="114" y2="150.2969"/><text fill="#000000" font-family="sans-serif" font-size="14" lengthAdjust="spacingAndGlyphs" textLength="90" x="185.5" y="136.9951">Node B: x.y.z</text><!--entity Node C: x.y.z--><polygon fill="#FEFECE" filter="url(#f1280ho6f9esoc)" points="335.5,114,345.5,104,465.5,104,465.5,140.2969,455.5,150.2969,335.5,150.2969,335.5,114" style="stroke: #000000; stroke-width: 1.5;"/><line style="stroke: #000000; stroke-width: 1.5;" x1="455.5" x2="464.5" y1="114" y2="105"/><line style="stroke: #000000; stroke-width: 1.5;" x1="335.5" x2="455.5" y1="114" y2="114"/><line style="stroke: #000000; stroke-width: 1.5;" x1="455.5" x2="455.5" y1="114" y2="150.2969"/><text fill="#000000" font-family="sans-serif" font-size="14" lengthAdjust="spacingAndGlyphs" textLength="90" x="350.5" y="136.9951">Node C: x.y.z</text><!--entity Node D: x.y.z--><polygon fill="#FEFECE" filter="url(#f1280ho6f9esoc)" points="501,114,511,104,632,104,632,140.2969,622,150.2969,501,150.2969,501,114" style="stroke: #000000; stroke-width: 1.5;"/><line style="stroke: #000000; stroke-width: 1.5;" x1="622" x2="631" y1="114" y2="105"/><line style="stroke: #000000; stroke-width: 1.5;" x1="501" x2="622" y1="114" y2="114"/><line style="stroke: #000000; stroke-width: 1.5;" x1="622" x2="622" y1="114" y2="150.2969"/><text fill="#000000" font-family="sans-serif" font-size="14" lengthAdjust="spacingAndGlyphs" textLength="91" x="516" y="136.9951">Node D: x.y.z</text><!--entity Node E: x.y.z--><polygon fill="#FEFECE" filter="url(#f1280ho6f9esoc)" points="667,114,677,104,796,104,796,140.2969,786,150.2969,667,150.2969,667,114" style="stroke: #000000; stroke-width: 1.5;"/><line style="stroke: #000000; stroke-width: 1.5;" x1="786" x2="795" y1="114" y2="105"/><line style="stroke: #000000; stroke-width: 1.5;" x1="667" x2="786" y1="114" y2="114"/><line style="stroke: #000000; stroke-width: 1.5;" x1="786" x2="786" y1="114" y2="150.2969"/><text fill="#000000" font-family="sans-serif" font-size="14" lengthAdjust="spacingAndGlyphs" textLength="89" x="682" y="136.9951">Node E: x.y.z</text><!--entity OX DB--><path d="M368,220 C368,210 400.5,210 400.5,210 C400.5,210 433,210 433,220 L433,245.2969 C433,255.2969 400.5,255.2969 400.5,255.2969 C400.5,255.2969 368,255.2969 368,245.2969 L368,220 " fill="#FEFECE" filter="url(#f1280ho6f9esoc)" style="stroke: #000000; stroke-width: 1.5;"/><path d="M368,220 C368,230 400.5,230 400.5,230 C400.5,230 433,230 433,220 " fill="none" style="stroke: #000000; stroke-width: 1.5;"/><text fill="#000000" font-family="sans-serif" font-size="14" lengthAdjust="spacingAndGlyphs" textLength="45" x="378" y="246.9951">OX DB</text><!--link Main Load Balancer to Node A: x.y.z--><path d="M343.771,44.019 C287.399,60.93 200.841,86.898 140.288,105.063 " fill="none" id="Main Load Balancer-Node A: x.y.z" style="stroke: #A80036; stroke-width: 1.0;"/><polygon fill="#A80036" points="135.244,106.577,145.014,107.8211,140.033,105.1397,142.7143,100.1587,135.244,106.577" style="stroke: #A80036; stroke-width: 1.0;"/><!--link Main Load Balancer to Node B: x.y.z--><path d="M372.135,44.019 C345.877,59.774 306.518,83.389 276.778,101.233 " fill="none" id="Main Load Balancer-Node B: x.y.z" style="stroke: #A80036; stroke-width: 1.0;"/><polygon fill="#A80036" points="272.463,103.822,282.2388,102.6244,276.7512,101.2508,278.1248,95.7632,272.463,103.822" style="stroke: #A80036; stroke-width: 1.0;"/><!--link Main Load Balancer to Node C: x.y.z--><path d="M400.5,44.244 C400.5,59.206 400.5,81.13 400.5,98.509 " fill="none" id="Main Load Balancer-Node C: x.y.z" style="stroke: #A80036; stroke-width: 1.0;"/><polygon fill="#A80036" points="400.5,103.744,404.5,94.744,400.5,98.744,396.5,94.744,400.5,103.744" style="stroke: #A80036; stroke-width: 1.0;"/><!--link Main Load Balancer to Node D: x.y.z--><path d="M429.036,44.019 C455.454,59.774 495.051,83.389 524.972,101.233 " fill="none" id="Main Load Balancer-Node D: x.y.z" style="stroke: #A80036; stroke-width: 1.0;"/><polygon fill="#A80036" points="529.313,103.822,523.6307,95.7777,525.0182,101.2617,519.5342,102.6493,529.313,103.822" style="stroke: #A80036; stroke-width: 1.0;"/><!--link Main Load Balancer to Node E: x.y.z--><path d="M457.401,44.019 C514.033,60.957 601.041,86.98 661.79,105.15 " fill="none" id="Main Load Balancer-Node E: x.y.z" style="stroke: #A80036; stroke-width: 1.0;"/><polygon fill="#A80036" points="666.849,106.663,659.3729,100.2515,662.0587,105.2301,657.0802,107.9159,666.849,106.663" style="stroke: #A80036; stroke-width: 1.0;"/><!--link Node A: x.y.z to OX DB--><path d="M135.304,148.325 C203.266,169.6403 307.729,202.4037 363.081,219.7639 " fill="none" id="Node A: x.y.z-OX DB" style="stroke: #A80036; stroke-width: 1.0;"/><polygon fill="#A80036" points="367.956,221.293,360.5665,214.7818,363.1854,219.7959,358.1712,222.4148,367.956,221.293" style="stroke: #A80036; stroke-width: 1.0;"/><!--link Node B: x.y.z to OX DB--><path d="M270.897,150.203 C298.221,167.3433 335.913,190.9865 363.607,208.3581 " fill="none" id="Node B: x.y.z-OX DB" style="stroke: #A80036; stroke-width: 1.0;"/><polygon fill="#A80036" points="367.963,211.0903,362.4646,202.9191,363.7274,208.4332,358.2133,209.6961,367.963,211.0903" style="stroke: #A80036; stroke-width: 1.0;"/><!--link Node C: x.y.z to OX DB--><path d="M400.5,150.203 C400.5,166.1368 400.5,187.6902 400.5,204.6009 " fill="none" id="Node C: x.y.z-OX DB" style="stroke: #A80036; stroke-width: 1.0;"/><polygon fill="#A80036" points="400.5,209.6886,404.5,200.6886,400.5,204.6886,396.5,200.6886,400.5,209.6886" style="stroke: #A80036; stroke-width: 1.0;"/><!--link Node D: x.y.z to OX DB--><path d="M530.889,150.203 C503.399,167.3433 465.478,190.9865 437.616,208.3581 " fill="none" id="Node D: x.y.z-OX DB" style="stroke: #A80036; stroke-width: 1.0;"/><polygon fill="#A80036" points="433.234,211.0903,442.9874,209.7223,437.4767,208.4447,438.7544,202.934,433.234,211.0903" style="stroke: #A80036; stroke-width: 1.0;"/><!--link Node E: x.y.z to OX DB--><path d="M666.894,148.202 C598.774,169.5019 493.778,202.3331 438.127,219.7345 " fill="none" id="Node E: x.y.z-OX DB" style="stroke: #A80036; stroke-width: 1.0;"/><polygon fill="#A80036" points="433.225,221.2672,443.0088,222.3977,437.997,219.7744,440.6203,214.7626,433.225,221.2672" style="stroke: #A80036; stroke-width: 1.0;"/><!--
@startuml
rectangle "Main Load Balancer"

node "Node A: x.y.z"
node "Node B: x.y.z"
node "Node C: x.y.z"
node "Node D: x.y.z"
node "Node E: x.y.z"

database "OX DB"

[Main Load Balancer] - -> [Node A: x.y.z]
[Main Load Balancer] - -> [Node B: x.y.z]
[Main Load Balancer] - -> [Node C: x.y.z]
[Main Load Balancer] - -> [Node D: x.y.z]
[Main Load Balancer] - -> [Node E: x.y.z]

[Node A: x.y.z] - -> [OX DB]
[Node B: x.y.z] - -> [OX DB]
[Node C: x.y.z] - -> [OX DB]
[Node D: x.y.z] - -> [OX DB]
[Node E: x.y.z] - -> [OX DB]

@enduml

PlantUML version 1.2017.15(Mon Jul 03 18:45:34 CEST 2017)
(GPL source distribution)
Java Runtime: Java(TM) SE Runtime Environment
JVM: Java HotSpot(TM) 64-Bit Server VM
Java Version: 1.8.0_152-b16
Operating System: Linux
OS Version: 4.9.0-5-amd64
Default Encoding: UTF-8
Language: en
Country: US
--></g></svg>