<?xml version="1.0" encoding="UTF-8" standalone="no"?><svg xmlns="http://www.w3.org/2000/svg" xmlns:xlink="http://www.w3.org/1999/xlink" contentScriptType="application/ecmascript" contentStyleType="text/css" height="267px" preserveAspectRatio="none" style="width:825px;height:267px;" version="1.1" viewBox="0 0 825 267" width="825px" zoomAndPan="magnify"><defs><filter height="300%" id="f1mbhqbg1lc5jo" width="300%" x="-1" y="-1"><feGaussianBlur result="blurOut" stdDeviation="2.0"/><feColorMatrix in="blurOut" result="blurOut2" type="matrix" values="0 0 0 0 0 0 0 0 0 0 0 0 0 0 0 0 0 0 .4 0"/><feOffset dx="4.0" dy="4.0" in="blurOut2" result="blurOut3"/><feBlend in="SourceGraphic" in2="blurOut3" mode="normal"/></filter></defs><g><!--entity Main Load Balancer--><rect fill="#FEFECE" filter="url(#f1mbhqbg1lc5jo)" height="36.4883" style="stroke: #000000; stroke-width: 1.5;" width="152" x="246.5" y="8"/><text fill="#000000" font-family="sans-serif" font-size="14" lengthAdjust="spacingAndGlyphs" textLength="132" x="256.5" y="31.5352">Main Load Balancer</text><!--entity Node A: 7.6.3--><polygon fill="#FEFECE" filter="url(#f1mbhqbg1lc5jo)" points="6,114,16,104,139,104,139,140.4883,129,150.4883,6,150.4883,6,114" style="stroke: #000000; stroke-width: 1.5;"/><line style="stroke: #000000; stroke-width: 1.5;" x1="129" x2="138" y1="114" y2="105"/><line style="stroke: #000000; stroke-width: 1.5;" x1="6" x2="129" y1="114" y2="114"/><line style="stroke: #000000; stroke-width: 1.5;" x1="129" x2="129" y1="114" y2="150.4883"/><text fill="#000000" font-family="sans-serif" font-size="14" lengthAdjust="spacingAndGlyphs" textLength="93" x="21" y="137.5352">Node A: 7.6.3</text><!--entity Node B: 7.6.3--><polygon fill="#FEFECE" filter="url(#f1mbhqbg1lc5jo)" points="174,114,184,104,305,104,305,140.4883,295,150.4883,174,150.4883,174,114" style="stroke: #000000; stroke-width: 1.5;"/><line style="stroke: #000000; stroke-width: 1.5;" x1="295" x2="304" y1="114" y2="105"/><line style="stroke: #000000; stroke-width: 1.5;" x1="174" x2="295" y1="114" y2="114"/><line style="stroke: #000000; stroke-width: 1.5;" x1="295" x2="295" y1="114" y2="150.4883"/><text fill="#000000" font-family="sans-serif" font-size="14" lengthAdjust="spacingAndGlyphs" textLength="91" x="189" y="137.5352">Node B: 7.6.3</text><!--entity Node C: 7.6.3--><polygon fill="#FEFECE" filter="url(#f1mbhqbg1lc5jo)" points="340,114,350,104,473,104,473,140.4883,463,150.4883,340,150.4883,340,114" style="stroke: #000000; stroke-width: 1.5;"/><line style="stroke: #000000; stroke-width: 1.5;" x1="463" x2="472" y1="114" y2="105"/><line style="stroke: #000000; stroke-width: 1.5;" x1="340" x2="463" y1="114" y2="114"/><line style="stroke: #000000; stroke-width: 1.5;" x1="463" x2="463" y1="114" y2="150.4883"/><text fill="#000000" font-family="sans-serif" font-size="14" lengthAdjust="spacingAndGlyphs" textLength="93" x="355" y="137.5352">Node C: 7.6.3</text><!--entity Node D: 7.6.3--><polygon fill="#FEFECE" filter="url(#f1mbhqbg1lc5jo)" points="508,114,518,104,641,104,641,140.4883,631,150.4883,508,150.4883,508,114" style="stroke: #000000; stroke-width: 1.5;"/><line style="stroke: #000000; stroke-width: 1.5;" x1="631" x2="640" y1="114" y2="105"/><line style="stroke: #000000; stroke-width: 1.5;" x1="508" x2="631" y1="114" y2="114"/><line style="stroke: #000000; stroke-width: 1.5;" x1="631" x2="631" y1="114" y2="150.4883"/><text fill="#000000" font-family="sans-serif" font-size="14" lengthAdjust="spacingAndGlyphs" textLength="93" x="523" y="137.5352">Node D: 7.6.3</text><!--entity Node E: 7.10--><polygon fill="#FEFECE" filter="url(#f1mbhqbg1lc5jo)" points="676,114,686,104,803,104,803,140.4883,793,150.4883,676,150.4883,676,114" style="stroke: #000000; stroke-width: 1.5;"/><line style="stroke: #000000; stroke-width: 1.5;" x1="793" x2="802" y1="114" y2="105"/><line style="stroke: #000000; stroke-width: 1.5;" x1="676" x2="793" y1="114" y2="114"/><line style="stroke: #000000; stroke-width: 1.5;" x1="793" x2="793" y1="114" y2="150.4883"/><text fill="#000000" font-family="sans-serif" font-size="14" lengthAdjust="spacingAndGlyphs" textLength="87" x="691" y="137.5352">Node E: 7.10</text><!--entity OX DB--><path d="M375.5,220 C375.5,210 406.5,210 406.5,210 C406.5,210 437.5,210 437.5,220 L437.5,245.4883 C437.5,255.4883 406.5,255.4883 406.5,255.4883 C406.5,255.4883 375.5,255.4883 375.5,245.4883 L375.5,220 " fill="#FEFECE" filter="url(#f1mbhqbg1lc5jo)" style="stroke: #000000; stroke-width: 1.5;"/><path d="M375.5,220 C375.5,230 406.5,230 406.5,230 C406.5,230 437.5,230 437.5,220 " fill="none" style="stroke: #000000; stroke-width: 1.5;"/><text fill="#000000" font-family="sans-serif" font-size="14" lengthAdjust="spacingAndGlyphs" textLength="42" x="385.5" y="247.5352">OX DB</text><!--link Main Load Balancer to Node A: 7.6.3--><path d="M279.523,44.019 C239.249,59.968 178.634,83.971 133.387,101.889 " fill="none" id="Main Load Balancer-Node A: 7.6.3" style="stroke: #A80036; stroke-width: 1.0;"/><polygon fill="#A80036" points="128.504,103.822,138.3445,104.2273,133.1528,101.9811,135.399,96.7893,128.504,103.822" style="stroke: #A80036; stroke-width: 1.0;"/><!--link Main Load Balancer to Node B: 7.6.3--><path d="M308.043,44.244 C295.175,59.593 276.164,82.268 261.425,99.848 " fill="none" id="Main Load Balancer-Node B: 7.6.3" style="stroke: #A80036; stroke-width: 1.0;"/><polygon fill="#A80036" points="258.159,103.744,267.0061,99.4163,261.371,99.9122,260.8751,94.2771,258.159,103.744" style="stroke: #A80036; stroke-width: 1.0;"/><!--link Main Load Balancer to Node C: 7.6.3--><path d="M337.132,44.244 C350.154,59.593 369.394,82.268 384.311,99.848 " fill="none" id="Main Load Balancer-Node C: 7.6.3" style="stroke: #A80036; stroke-width: 1.0;"/><polygon fill="#A80036" points="387.616,103.744,384.8424,94.2937,384.3808,99.9317,378.7428,99.4701,387.616,103.744" style="stroke: #A80036; stroke-width: 1.0;"/><!--link Main Load Balancer to Node D: 7.6.3--><path d="M365.82,44.019 C406.417,59.968 467.517,83.971 513.126,101.889 " fill="none" id="Main Load Balancer-Node D: 7.6.3" style="stroke: #A80036; stroke-width: 1.0;"/><polygon fill="#A80036" points="518.048,103.822,511.134,96.808,513.3943,101.9936,508.2086,104.2539,518.048,103.822" style="stroke: #A80036; stroke-width: 1.0;"/><!--link Node A: 7.6.3 to OX DB--><path d="M139.287,148.696 C208.769,170.2272 314.979,203.1394 370.244,220.265 " fill="none" id="Node A: 7.6.3-OX DB" style="stroke: #A80036; stroke-width: 1.0;"/><polygon fill="#A80036" points="375.106,221.7717,367.6933,215.2869,370.3301,220.2917,365.3253,222.9284,375.106,221.7717" style="stroke: #A80036; stroke-width: 1.0;"/><!--link Node B: 7.6.3 to OX DB--><path d="M275.326,150.203 C303.527,167.6816 342.64,191.9223 370.808,209.3793 " fill="none" id="Node B: 7.6.3-OX DB" style="stroke: #A80036; stroke-width: 1.0;"/><polygon fill="#A80036" points="375.231,212.1207,369.6886,203.9793,370.9812,209.4865,365.474,210.779,375.231,212.1207" style="stroke: #A80036; stroke-width: 1.0;"/><!--link Node C: 7.6.3 to OX DB--><path d="M406.5,150.203 C406.5,166.1368 406.5,187.6902 406.5,204.6009 " fill="none" id="Node C: 7.6.3-OX DB" style="stroke: #A80036; stroke-width: 1.0;"/><polygon fill="#A80036" points="406.5,209.6886,410.5,200.6886,406.5,204.6886,402.5,200.6886,406.5,209.6886" style="stroke: #A80036; stroke-width: 1.0;"/><!--link Node D: 7.6.3 to OX DB--><path d="M538.46,150.203 C509.998,167.738 470.488,192.0788 442.132,209.548 " fill="none" id="Node D: 7.6.3-OX DB" style="stroke: #A80036; stroke-width: 1.0;"/><polygon fill="#A80036" points="437.68,212.2906,447.4409,210.9775,441.9375,209.6689,443.2461,204.1654,437.68,212.2906" style="stroke: #A80036; stroke-width: 1.0;"/><!--link Node E: 7.10 to OX DB--><path d="M675.688,147.833 C606.577,169.3139 498.739,202.831 442.842,220.2044 " fill="none" id="Node E: 7.10-OX DB" style="stroke: #A80036; stroke-width: 1.0;"/><polygon fill="#A80036" points="437.926,221.7326,447.7077,222.8806,442.7006,220.2483,445.3329,215.2412,437.926,221.7326" style="stroke: #A80036; stroke-width: 1.0;"/><!--
@startuml
rectangle "Main Load Balancer"

node "Node A: 7.6.3"
node "Node B: 7.6.3"
node "Node C: 7.6.3"
node "Node D: 7.6.3"
node "Node E: 7.10"

database "OX DB"

[Main Load Balancer] - -> [Node A: 7.6.3]
[Main Load Balancer] - -> [Node B: 7.6.3]
[Main Load Balancer] - -> [Node C: 7.6.3]
[Main Load Balancer] - -> [Node D: 7.6.3]

[Node A: 7.6.3] - -> [OX DB]
[Node B: 7.6.3] - -> [OX DB]
[Node C: 7.6.3] - -> [OX DB]
[Node D: 7.6.3] - -> [OX DB]
[Node E: 7.10] - -> [OX DB]

@enduml

PlantUML version 1.2017.14(Mon Jun 05 11:56:32 CEST 2017)
(GPL source distribution)
Java Runtime: Java(TM) SE Runtime Environment
JVM: Java HotSpot(TM) 64-Bit Server VM
Java Version: 1.8.0_121-b13
Operating System: Mac OS X
OS Version: 10.12.6
Default Encoding: UTF-8
Language: en
Country: US
--></g></svg>