<?xml version="1.0" encoding="UTF-8" standalone="no"?><svg xmlns="http://www.w3.org/2000/svg" xmlns:xlink="http://www.w3.org/1999/xlink" contentScriptType="application/ecmascript" contentStyleType="text/css" height="267px" preserveAspectRatio="none" style="width:829px;height:267px;" version="1.1" viewBox="0 0 829 267" width="829px" zoomAndPan="magnify"><defs><filter height="300%" id="f13lq8ycklglqh" width="300%" x="-1" y="-1"><feGaussianBlur result="blurOut" stdDeviation="2.0"/><feColorMatrix in="blurOut" result="blurOut2" type="matrix" values="0 0 0 0 0 0 0 0 0 0 0 0 0 0 0 0 0 0 .4 0"/><feOffset dx="4.0" dy="4.0" in="blurOut2" result="blurOut3"/><feBlend in="SourceGraphic" in2="blurOut3" mode="normal"/></filter></defs><g><!--entity Main Load Balancer--><rect fill="#FEFECE" filter="url(#f13lq8ycklglqh)" height="36.4883" style="stroke: #000000; stroke-width: 1.5;" width="152" x="330.5" y="8"/><text fill="#000000" font-family="sans-serif" font-size="14" lengthAdjust="spacingAndGlyphs" textLength="132" x="340.5" y="31.5352">Main Load Balancer</text><!--entity Node A: 7.6.3--><polygon fill="#FEFECE" filter="url(#f13lq8ycklglqh)" points="6,114,16,104,139,104,139,140.4883,129,150.4883,6,150.4883,6,114" style="stroke: #000000; stroke-width: 1.5;"/><line style="stroke: #000000; stroke-width: 1.5;" x1="129" x2="138" y1="114" y2="105"/><line style="stroke: #000000; stroke-width: 1.5;" x1="6" x2="129" y1="114" y2="114"/><line style="stroke: #000000; stroke-width: 1.5;" x1="129" x2="129" y1="114" y2="150.4883"/><text fill="#000000" font-family="sans-serif" font-size="14" lengthAdjust="spacingAndGlyphs" textLength="93" x="21" y="137.5352">Node A: 7.6.3</text><!--entity Node B: 7.6.3--><polygon fill="#FEFECE" filter="url(#f13lq8ycklglqh)" points="174,114,184,104,305,104,305,140.4883,295,150.4883,174,150.4883,174,114" style="stroke: #000000; stroke-width: 1.5;"/><line style="stroke: #000000; stroke-width: 1.5;" x1="295" x2="304" y1="114" y2="105"/><line style="stroke: #000000; stroke-width: 1.5;" x1="174" x2="295" y1="114" y2="114"/><line style="stroke: #000000; stroke-width: 1.5;" x1="295" x2="295" y1="114" y2="150.4883"/><text fill="#000000" font-family="sans-serif" font-size="14" lengthAdjust="spacingAndGlyphs" textLength="91" x="189" y="137.5352">Node B: 7.6.3</text><!--entity Node C: 7.6.3--><polygon fill="#FEFECE" filter="url(#f13lq8ycklglqh)" points="340,114,350,104,473,104,473,140.4883,463,150.4883,340,150.4883,340,114" style="stroke: #000000; stroke-width: 1.5;"/><line style="stroke: #000000; stroke-width: 1.5;" x1="463" x2="472" y1="114" y2="105"/><line style="stroke: #000000; stroke-width: 1.5;" x1="340" x2="463" y1="114" y2="114"/><line style="stroke: #000000; stroke-width: 1.5;" x1="463" x2="463" y1="114" y2="150.4883"/><text fill="#000000" font-family="sans-serif" font-size="14" lengthAdjust="spacingAndGlyphs" textLength="93" x="355" y="137.5352">Node C: 7.6.3</text><!--entity Node D: 7.6.3--><polygon fill="#FEFECE" filter="url(#f13lq8ycklglqh)" points="508,114,518,104,641,104,641,140.4883,631,150.4883,508,150.4883,508,114" style="stroke: #000000; stroke-width: 1.5;"/><line style="stroke: #000000; stroke-width: 1.5;" x1="631" x2="640" y1="114" y2="105"/><line style="stroke: #000000; stroke-width: 1.5;" x1="508" x2="631" y1="114" y2="114"/><line style="stroke: #000000; stroke-width: 1.5;" x1="631" x2="631" y1="114" y2="150.4883"/><text fill="#000000" font-family="sans-serif" font-size="14" lengthAdjust="spacingAndGlyphs" textLength="93" x="523" y="137.5352">Node D: 7.6.3</text><!--entity Node E: 7.6.3--><polygon fill="#FEFECE" filter="url(#f13lq8ycklglqh)" points="676,114,686,104,807,104,807,140.4883,797,150.4883,676,150.4883,676,114" style="stroke: #000000; stroke-width: 1.5;"/><line style="stroke: #000000; stroke-width: 1.5;" x1="797" x2="806" y1="114" y2="105"/><line style="stroke: #000000; stroke-width: 1.5;" x1="676" x2="797" y1="114" y2="114"/><line style="stroke: #000000; stroke-width: 1.5;" x1="797" x2="797" y1="114" y2="150.4883"/><text fill="#000000" font-family="sans-serif" font-size="14" lengthAdjust="spacingAndGlyphs" textLength="91" x="691" y="137.5352">Node E: 7.6.3</text><!--entity OX DB--><path d="M375.5,220 C375.5,210 406.5,210 406.5,210 C406.5,210 437.5,210 437.5,220 L437.5,245.4883 C437.5,255.4883 406.5,255.4883 406.5,255.4883 C406.5,255.4883 375.5,255.4883 375.5,245.4883 L375.5,220 " fill="#FEFECE" filter="url(#f13lq8ycklglqh)" style="stroke: #000000; stroke-width: 1.5;"/><path d="M375.5,220 C375.5,230 406.5,230 406.5,230 C406.5,230 437.5,230 437.5,220 " fill="none" style="stroke: #000000; stroke-width: 1.5;"/><text fill="#000000" font-family="sans-serif" font-size="14" lengthAdjust="spacingAndGlyphs" textLength="42" x="385.5" y="247.5352">OX DB</text><!--link Main Load Balancer to Node A: 7.6.3--><path d="M349.083,44.019 C292.391,60.823 205.533,86.568 144.307,104.716 " fill="none" id="Main Load Balancer-Node A: 7.6.3" style="stroke: #A80036; stroke-width: 1.0;"/><polygon fill="#A80036" points="139.205,106.228,148.9704,107.5074,143.9991,104.808,146.6985,99.8368,139.205,106.228" style="stroke: #A80036; stroke-width: 1.0;"/><!--link Main Load Balancer to Node B: 7.6.3--><path d="M377.792,44.019 C351.215,59.774 311.379,83.389 281.278,101.233 " fill="none" id="Main Load Balancer-Node B: 7.6.3" style="stroke: #A80036; stroke-width: 1.0;"/><polygon fill="#A80036" points="276.911,103.822,286.6926,102.6733,281.212,101.2722,282.613,95.7916,276.911,103.822" style="stroke: #A80036; stroke-width: 1.0;"/><!--link Main Load Balancer to Node C: 7.6.3--><path d="M406.5,44.244 C406.5,59.206 406.5,81.13 406.5,98.509 " fill="none" id="Main Load Balancer-Node C: 7.6.3" style="stroke: #A80036; stroke-width: 1.0;"/><polygon fill="#A80036" points="406.5,103.744,410.5,94.744,406.5,98.744,402.5,94.744,406.5,103.744" style="stroke: #A80036; stroke-width: 1.0;"/><!--link Main Load Balancer to Node D: 7.6.3--><path d="M435.38,44.019 C462.116,59.774 502.191,83.389 532.471,101.233 " fill="none" id="Main Load Balancer-Node D: 7.6.3" style="stroke: #A80036; stroke-width: 1.0;"/><polygon fill="#A80036" points="536.865,103.822,531.1414,95.807,532.5571,101.2838,527.0803,102.6996,536.865,103.822" style="stroke: #A80036; stroke-width: 1.0;"/><!--link Main Load Balancer to Node E: 7.6.3--><path d="M464.089,44.019 C521.314,60.93 609.185,86.898 670.654,105.063 " fill="none" id="Main Load Balancer-Node E: 7.6.3" style="stroke: #A80036; stroke-width: 1.0;"/><polygon fill="#A80036" points="675.775,106.577,668.2775,100.1905,670.98,105.1601,666.0104,107.8625,675.775,106.577" style="stroke: #A80036; stroke-width: 1.0;"/><!--link Node A: 7.6.3 to OX DB--><path d="M139.287,148.696 C208.769,170.2272 314.979,203.1394 370.244,220.265 " fill="none" id="Node A: 7.6.3-OX DB" style="stroke: #A80036; stroke-width: 1.0;"/><polygon fill="#A80036" points="375.106,221.7717,367.6933,215.2869,370.3301,220.2917,365.3253,222.9284,375.106,221.7717" style="stroke: #A80036; stroke-width: 1.0;"/><!--link Node B: 7.6.3 to OX DB--><path d="M275.326,150.203 C303.527,167.6816 342.64,191.9223 370.808,209.3793 " fill="none" id="Node B: 7.6.3-OX DB" style="stroke: #A80036; stroke-width: 1.0;"/><polygon fill="#A80036" points="375.231,212.1207,369.6886,203.9793,370.9812,209.4865,365.474,210.779,375.231,212.1207" style="stroke: #A80036; stroke-width: 1.0;"/><!--link Node C: 7.6.3 to OX DB--><path d="M406.5,150.203 C406.5,166.1368 406.5,187.6902 406.5,204.6009 " fill="none" id="Node C: 7.6.3-OX DB" style="stroke: #A80036; stroke-width: 1.0;"/><polygon fill="#A80036" points="406.5,209.6886,410.5,200.6886,406.5,204.6886,402.5,200.6886,406.5,209.6886" style="stroke: #A80036; stroke-width: 1.0;"/><!--link Node D: 7.6.3 to OX DB--><path d="M538.46,150.203 C509.998,167.738 470.488,192.0788 442.132,209.548 " fill="none" id="Node D: 7.6.3-OX DB" style="stroke: #A80036; stroke-width: 1.0;"/><polygon fill="#A80036" points="437.68,212.2906,447.4409,210.9775,441.9375,209.6689,443.2461,204.1654,437.68,212.2906" style="stroke: #A80036; stroke-width: 1.0;"/><!--link Node E: 7.6.3 to OX DB--><path d="M675.714,148.325 C605.982,169.8689 498.398,203.1077 442.696,220.3171 " fill="none" id="Node E: 7.6.3-OX DB" style="stroke: #A80036; stroke-width: 1.0;"/><polygon fill="#A80036" points="437.797,221.8307,447.577,222.9935,442.5739,220.3536,445.2137,215.3505,437.797,221.8307" style="stroke: #A80036; stroke-width: 1.0;"/><!--
@startuml
rectangle "Main Load Balancer"

node "Node A: 7.6.3"
node "Node B: 7.6.3"
node "Node C: 7.6.3"
node "Node D: 7.6.3"
node "Node E: 7.6.3"

database "OX DB"

[Main Load Balancer] - -> [Node A: 7.6.3]
[Main Load Balancer] - -> [Node B: 7.6.3]
[Main Load Balancer] - -> [Node C: 7.6.3]
[Main Load Balancer] - -> [Node D: 7.6.3]
[Main Load Balancer] - -> [Node E: 7.6.3]

[Node A: 7.6.3] - -> [OX DB]
[Node B: 7.6.3] - -> [OX DB]
[Node C: 7.6.3] - -> [OX DB]
[Node D: 7.6.3] - -> [OX DB]
[Node E: 7.6.3] - -> [OX DB]

@enduml

PlantUML version 1.2017.14(Mon Jun 05 11:56:32 CEST 2017)
(GPL source distribution)
Java Runtime: Java(TM) SE Runtime Environment
JVM: Java HotSpot(TM) 64-Bit Server VM
Java Version: 1.8.0_121-b13
Operating System: Mac OS X
OS Version: 10.12.6
Default Encoding: UTF-8
Language: en
Country: US
--></g></svg>