<?xml version="1.0" encoding="UTF-8" standalone="no"?><svg xmlns="http://www.w3.org/2000/svg" xmlns:xlink="http://www.w3.org/1999/xlink" contentScriptType="application/ecmascript" contentStyleType="text/css" height="162px" preserveAspectRatio="none" style="width:895px;height:162px;" version="1.1" viewBox="0 0 895 162" width="895px" zoomAndPan="magnify"><defs><filter height="300%" id="f1ag6k8lfhbs9h" width="300%" x="-1" y="-1"><feGaussianBlur result="blurOut" stdDeviation="2.0"/><feColorMatrix in="blurOut" result="blurOut2" type="matrix" values="0 0 0 0 0 0 0 0 0 0 0 0 0 0 0 0 0 0 .4 0"/><feOffset dx="4.0" dy="4.0" in="blurOut2" result="blurOut3"/><feBlend in="SourceGraphic" in2="blurOut3" mode="normal"/></filter></defs><g><!--entity Main Load Balancer--><rect fill="#FEFECE" filter="url(#f1ag6k8lfhbs9h)" height="36.2969" style="stroke: #000000; stroke-width: 1.5;" width="153" x="269" y="8"/><text fill="#000000" font-family="sans-serif" font-size="14" lengthAdjust="spacingAndGlyphs" textLength="133" x="279" y="30.9951">Main Load Balancer</text><!--entity Secondary Load Balancer--><rect fill="#FEFECE" filter="url(#f1ag6k8lfhbs9h)" height="36.2969" style="stroke: #000000; stroke-width: 1.5;" width="194" x="690.5" y="8"/><text fill="#000000" font-family="sans-serif" font-size="14" lengthAdjust="spacingAndGlyphs" textLength="174" x="700.5" y="30.9951">Secondary Load Balancer</text><!--entity Node A: 7.10.0--><polygon fill="#FEFECE" filter="url(#f1ag6k8lfhbs9h)" points="6,114,16,104,149,104,149,140.2969,139,150.2969,6,150.2969,6,114" style="stroke: #000000; stroke-width: 1.5;"/><line style="stroke: #000000; stroke-width: 1.5;" x1="139" x2="148" y1="114" y2="105"/><line style="stroke: #000000; stroke-width: 1.5;" x1="6" x2="139" y1="114" y2="114"/><line style="stroke: #000000; stroke-width: 1.5;" x1="139" x2="139" y1="114" y2="150.2969"/><text fill="#000000" font-family="sans-serif" font-size="14" lengthAdjust="spacingAndGlyphs" textLength="103" x="21" y="136.9951">Node A: 7.10.0</text><!--entity Node B: 7.10.0--><polygon fill="#FEFECE" filter="url(#f1ag6k8lfhbs9h)" points="184.5,114,194.5,104,328.5,104,328.5,140.2969,318.5,150.2969,184.5,150.2969,184.5,114" style="stroke: #000000; stroke-width: 1.5;"/><line style="stroke: #000000; stroke-width: 1.5;" x1="318.5" x2="327.5" y1="114" y2="105"/><line style="stroke: #000000; stroke-width: 1.5;" x1="184.5" x2="318.5" y1="114" y2="114"/><line style="stroke: #000000; stroke-width: 1.5;" x1="318.5" x2="318.5" y1="114" y2="150.2969"/><text fill="#000000" font-family="sans-serif" font-size="14" lengthAdjust="spacingAndGlyphs" textLength="104" x="199.5" y="136.9951">Node B: 7.10.0</text><!--entity Node C: 7.10.0--><polygon fill="#FEFECE" filter="url(#f1ag6k8lfhbs9h)" points="363.5,114,373.5,104,507.5,104,507.5,140.2969,497.5,150.2969,363.5,150.2969,363.5,114" style="stroke: #000000; stroke-width: 1.5;"/><line style="stroke: #000000; stroke-width: 1.5;" x1="497.5" x2="506.5" y1="114" y2="105"/><line style="stroke: #000000; stroke-width: 1.5;" x1="363.5" x2="497.5" y1="114" y2="114"/><line style="stroke: #000000; stroke-width: 1.5;" x1="497.5" x2="497.5" y1="114" y2="150.2969"/><text fill="#000000" font-family="sans-serif" font-size="14" lengthAdjust="spacingAndGlyphs" textLength="104" x="378.5" y="136.9951">Node C: 7.10.0</text><!--entity Node D: 7.10.0--><polygon fill="#FEFECE" filter="url(#f1ag6k8lfhbs9h)" points="543,114,553,104,688,104,688,140.2969,678,150.2969,543,150.2969,543,114" style="stroke: #000000; stroke-width: 1.5;"/><line style="stroke: #000000; stroke-width: 1.5;" x1="678" x2="687" y1="114" y2="105"/><line style="stroke: #000000; stroke-width: 1.5;" x1="543" x2="678" y1="114" y2="114"/><line style="stroke: #000000; stroke-width: 1.5;" x1="678" x2="678" y1="114" y2="150.2969"/><text fill="#000000" font-family="sans-serif" font-size="14" lengthAdjust="spacingAndGlyphs" textLength="105" x="558" y="136.9951">Node D: 7.10.0</text><!--entity Node E: x.y.z--><polygon fill="#FEFECE" filter="url(#f1ag6k8lfhbs9h)" points="723,114,733,104,852,104,852,140.2969,842,150.2969,723,150.2969,723,114" style="stroke: #000000; stroke-width: 1.5;"/><line style="stroke: #000000; stroke-width: 1.5;" x1="842" x2="851" y1="114" y2="105"/><line style="stroke: #000000; stroke-width: 1.5;" x1="723" x2="842" y1="114" y2="114"/><line style="stroke: #000000; stroke-width: 1.5;" x1="842" x2="842" y1="114" y2="150.2969"/><text fill="#000000" font-family="sans-serif" font-size="14" lengthAdjust="spacingAndGlyphs" textLength="89" x="738" y="136.9951">Node E: x.y.z</text><!--link Main Load Balancer to Node A: 7.10.0--><path d="M299.429,44.019 C256.167,59.9999 191.012,84.0682 142.477,101.9975 " fill="none" id="Main Load Balancer-Node A: 7.10.0" style="stroke: #A80036; stroke-width: 1.0;"/><polygon fill="#A80036" points="137.536,103.8224,147.3645,104.4555,142.2261,102.0896,144.592,96.9512,137.536,103.8224" style="stroke: #A80036; stroke-width: 1.0;"/><!--link Main Load Balancer to Node B: 7.10.0--><path d="M329.997,44.244 C316.2,59.5925 295.814,82.2685 280.01,99.8481 " fill="none" id="Main Load Balancer-Node B: 7.10.0" style="stroke: #A80036; stroke-width: 1.0;"/><polygon fill="#A80036" points="276.508,103.7439,285.4995,99.7248,279.8506,100.0254,279.5499,94.3766,276.508,103.7439" style="stroke: #A80036; stroke-width: 1.0;"/><!--link Main Load Balancer to Node C: 7.10.0--><path d="M361.177,44.244 C375.13,59.5925 395.744,82.2685 411.726,99.8481 " fill="none" id="Main Load Balancer-Node C: 7.10.0" style="stroke: #A80036; stroke-width: 1.0;"/><polygon fill="#A80036" points="415.267,103.7439,412.173,94.3937,411.9037,100.0441,406.2533,99.7749,415.267,103.7439" style="stroke: #A80036; stroke-width: 1.0;"/><!--link Main Load Balancer to Node D: 7.10.0--><path d="M391.915,44.019 C435.5,59.9999 501.141,84.0682 550.039,101.9975 " fill="none" id="Main Load Balancer-Node D: 7.10.0" style="stroke: #A80036; stroke-width: 1.0;"/><polygon fill="#A80036" points="555.016,103.8224,547.9434,96.9683,550.3217,102.101,545.1891,104.4793,555.016,103.8224" style="stroke: #A80036; stroke-width: 1.0;"/><!--link Secondary Load Balancer to Node E: x.y.z--><path d="M787.5,44.244 C787.5,59.2056 787.5,81.1298 787.5,98.509 " fill="none" id="Secondary Load Balancer-Node E: x.y.z" style="stroke: #A80036; stroke-width: 1.0;"/><polygon fill="#A80036" points="787.5,103.7439,791.5,94.7439,787.5,98.7439,783.5,94.7439,787.5,103.7439" style="stroke: #A80036; stroke-width: 1.0;"/><!--
@startuml
rectangle "Main Load Balancer"
rectangle "Secondary Load Balancer"

node "Node A: 7.10.0"
node "Node B: 7.10.0"
node "Node C: 7.10.0"
node "Node D: 7.10.0"
node "Node E: x.y.z"

[Main Load Balancer] - -> [Node A: 7.10.0]
[Main Load Balancer] - -> [Node B: 7.10.0]
[Main Load Balancer] - -> [Node C: 7.10.0]
[Main Load Balancer] - -> [Node D: 7.10.0]
[Secondary Load Balancer] - -> [Node E: x.y.z]


@enduml

PlantUML version 1.2017.15(Mon Jul 03 18:45:34 CEST 2017)
(GPL source distribution)
Java Runtime: Java(TM) SE Runtime Environment
JVM: Java HotSpot(TM) 64-Bit Server VM
Java Version: 1.8.0_152-b16
Operating System: Linux
OS Version: 4.9.0-5-amd64
Default Encoding: UTF-8
Language: en
Country: US
--></g></svg>