<?xml version="1.0" encoding="UTF-8" standalone="no"?><svg xmlns="http://www.w3.org/2000/svg" xmlns:xlink="http://www.w3.org/1999/xlink" contentScriptType="application/ecmascript" contentStyleType="text/css" height="267px" preserveAspectRatio="none" style="width:809px;height:267px;" version="1.1" viewBox="0 0 809 267" width="809px" zoomAndPan="magnify"><defs><filter height="300%" id="f8kdc0rk1ijbr" width="300%" x="-1" y="-1"><feGaussianBlur result="blurOut" stdDeviation="2.0"/><feColorMatrix in="blurOut" result="blurOut2" type="matrix" values="0 0 0 0 0 0 0 0 0 0 0 0 0 0 0 0 0 0 .4 0"/><feOffset dx="4.0" dy="4.0" in="blurOut2" result="blurOut3"/><feBlend in="SourceGraphic" in2="blurOut3" mode="normal"/></filter></defs><g><!--entity Main Load Balancer--><rect fill="#FEFECE" filter="url(#f8kdc0rk1ijbr)" height="36.4883" style="stroke: #000000; stroke-width: 1.5;" width="152" x="320.5" y="8"/><text fill="#000000" font-family="sans-serif" font-size="14" lengthAdjust="spacingAndGlyphs" textLength="132" x="330.5" y="31.5352">Main Load Balancer</text><!--entity Node A: 7.10--><polygon fill="#FEFECE" filter="url(#f8kdc0rk1ijbr)" points="6,114,16,104,135,104,135,140.4883,125,150.4883,6,150.4883,6,114" style="stroke: #000000; stroke-width: 1.5;"/><line style="stroke: #000000; stroke-width: 1.5;" x1="125" x2="134" y1="114" y2="105"/><line style="stroke: #000000; stroke-width: 1.5;" x1="6" x2="125" y1="114" y2="114"/><line style="stroke: #000000; stroke-width: 1.5;" x1="125" x2="125" y1="114" y2="150.4883"/><text fill="#000000" font-family="sans-serif" font-size="14" lengthAdjust="spacingAndGlyphs" textLength="89" x="21" y="137.5352">Node A: 7.10</text><!--entity Node B: 7.10--><polygon fill="#FEFECE" filter="url(#f8kdc0rk1ijbr)" points="170,114,180,104,297,104,297,140.4883,287,150.4883,170,150.4883,170,114" style="stroke: #000000; stroke-width: 1.5;"/><line style="stroke: #000000; stroke-width: 1.5;" x1="287" x2="296" y1="114" y2="105"/><line style="stroke: #000000; stroke-width: 1.5;" x1="170" x2="287" y1="114" y2="114"/><line style="stroke: #000000; stroke-width: 1.5;" x1="287" x2="287" y1="114" y2="150.4883"/><text fill="#000000" font-family="sans-serif" font-size="14" lengthAdjust="spacingAndGlyphs" textLength="87" x="185" y="137.5352">Node B: 7.10</text><!--entity Node C: 7.10--><polygon fill="#FEFECE" filter="url(#f8kdc0rk1ijbr)" points="332,114,342,104,461,104,461,140.4883,451,150.4883,332,150.4883,332,114" style="stroke: #000000; stroke-width: 1.5;"/><line style="stroke: #000000; stroke-width: 1.5;" x1="451" x2="460" y1="114" y2="105"/><line style="stroke: #000000; stroke-width: 1.5;" x1="332" x2="451" y1="114" y2="114"/><line style="stroke: #000000; stroke-width: 1.5;" x1="451" x2="451" y1="114" y2="150.4883"/><text fill="#000000" font-family="sans-serif" font-size="14" lengthAdjust="spacingAndGlyphs" textLength="89" x="347" y="137.5352">Node C: 7.10</text><!--entity Node D: 7.10--><polygon fill="#FEFECE" filter="url(#f8kdc0rk1ijbr)" points="496,114,506,104,625,104,625,140.4883,615,150.4883,496,150.4883,496,114" style="stroke: #000000; stroke-width: 1.5;"/><line style="stroke: #000000; stroke-width: 1.5;" x1="615" x2="624" y1="114" y2="105"/><line style="stroke: #000000; stroke-width: 1.5;" x1="496" x2="615" y1="114" y2="114"/><line style="stroke: #000000; stroke-width: 1.5;" x1="615" x2="615" y1="114" y2="150.4883"/><text fill="#000000" font-family="sans-serif" font-size="14" lengthAdjust="spacingAndGlyphs" textLength="89" x="511" y="137.5352">Node D: 7.10</text><!--entity Node E: 7.10--><polygon fill="#FEFECE" filter="url(#f8kdc0rk1ijbr)" points="660,114,670,104,787,104,787,140.4883,777,150.4883,660,150.4883,660,114" style="stroke: #000000; stroke-width: 1.5;"/><line style="stroke: #000000; stroke-width: 1.5;" x1="777" x2="786" y1="114" y2="105"/><line style="stroke: #000000; stroke-width: 1.5;" x1="660" x2="777" y1="114" y2="114"/><line style="stroke: #000000; stroke-width: 1.5;" x1="777" x2="777" y1="114" y2="150.4883"/><text fill="#000000" font-family="sans-serif" font-size="14" lengthAdjust="spacingAndGlyphs" textLength="87" x="675" y="137.5352">Node E: 7.10</text><!--entity OX DB--><path d="M365.5,220 C365.5,210 396.5,210 396.5,210 C396.5,210 427.5,210 427.5,220 L427.5,245.4883 C427.5,255.4883 396.5,255.4883 396.5,255.4883 C396.5,255.4883 365.5,255.4883 365.5,245.4883 L365.5,220 " fill="#FEFECE" filter="url(#f8kdc0rk1ijbr)" style="stroke: #000000; stroke-width: 1.5;"/><path d="M365.5,220 C365.5,230 396.5,230 396.5,230 C396.5,230 427.5,230 427.5,220 " fill="none" style="stroke: #000000; stroke-width: 1.5;"/><text fill="#000000" font-family="sans-serif" font-size="14" lengthAdjust="spacingAndGlyphs" textLength="42" x="375.5" y="247.5352">OX DB</text><!--link Main Load Balancer to Node A: 7.10--><path d="M340.459,44.019 C284.947,60.876 199.804,86.733 140.014,104.89 " fill="none" id="Main Load Balancer-Node A: 7.10" style="stroke: #A80036; stroke-width: 1.0;"/><polygon fill="#A80036" points="135.033,106.403,144.807,107.6153,139.8173,104.9501,142.4824,99.9605,135.033,106.403" style="stroke: #A80036; stroke-width: 1.0;"/><!--link Main Load Balancer to Node B: 7.10--><path d="M368.479,44.019 C342.645,59.709 303.976,83.196 274.639,101.014 " fill="none" id="Main Load Balancer-Node B: 7.10" style="stroke: #A80036; stroke-width: 1.0;"/><polygon fill="#A80036" points="270.015,103.822,279.7839,102.5693,274.2887,101.2267,275.6313,95.7315,270.015,103.822" style="stroke: #A80036; stroke-width: 1.0;"/><!--link Main Load Balancer to Node C: 7.10--><path d="M396.5,44.244 C396.5,59.206 396.5,81.13 396.5,98.509 " fill="none" id="Main Load Balancer-Node C: 7.10" style="stroke: #A80036; stroke-width: 1.0;"/><polygon fill="#A80036" points="396.5,103.744,400.5,94.744,396.5,98.744,392.5,94.744,396.5,103.744" style="stroke: #A80036; stroke-width: 1.0;"/><!--link Main Load Balancer to Node D: 7.10--><path d="M424.693,44.019 C450.792,59.774 489.912,83.389 519.472,101.233 " fill="none" id="Main Load Balancer-Node D: 7.10" style="stroke: #A80036; stroke-width: 1.0;"/><polygon fill="#A80036" points="523.761,103.822,518.1229,95.7466,519.4804,101.2382,513.9888,102.5957,523.761,103.822" style="stroke: #A80036; stroke-width: 1.0;"/><!--link Main Load Balancer to Node E: 7.10--><path d="M452.713,44.019 C508.75,60.984 594.89,87.063 654.918,105.237 " fill="none" id="Main Load Balancer-Node E: 7.10" style="stroke: #A80036; stroke-width: 1.0;"/><polygon fill="#A80036" points="659.917,106.75,652.4635,100.3121,655.1318,105.3002,650.1438,107.9684,659.917,106.75" style="stroke: #A80036; stroke-width: 1.0;"/><!--link Node A: 7.10 to OX DB--><path d="M135.297,148.572 C202.889,170.0316 306.4,202.8948 360.591,220.0993 " fill="none" id="Node A: 7.10-OX DB" style="stroke: #A80036; stroke-width: 1.0;"/><polygon fill="#A80036" points="365.36,221.6135,357.9922,215.0778,360.5944,220.1006,355.5716,222.7028,365.36,221.6135" style="stroke: #A80036; stroke-width: 1.0;"/><!--link Node B: 7.10 to OX DB--><path d="M268.468,150.203 C295.816,167.5689 333.678,191.6098 361.129,209.0406 " fill="none" id="Node B: 7.10-OX DB" style="stroke: #A80036; stroke-width: 1.0;"/><polygon fill="#A80036" points="365.442,211.7793,359.9881,203.5784,361.2209,209.0993,355.7001,210.3321,365.442,211.7793" style="stroke: #A80036; stroke-width: 1.0;"/><!--link Node C: 7.10 to OX DB--><path d="M396.5,150.203 C396.5,166.1368 396.5,187.6902 396.5,204.6009 " fill="none" id="Node C: 7.10-OX DB" style="stroke: #A80036; stroke-width: 1.0;"/><polygon fill="#A80036" points="396.5,209.6886,400.5,200.6886,396.5,204.6886,392.5,200.6886,396.5,209.6886" style="stroke: #A80036; stroke-width: 1.0;"/><!--link Node D: 7.10 to OX DB--><path d="M525.318,150.203 C497.802,167.5689 459.708,191.6098 432.088,209.0406 " fill="none" id="Node D: 7.10-OX DB" style="stroke: #A80036; stroke-width: 1.0;"/><polygon fill="#A80036" points="427.748,211.7793,437.4939,210.3586,431.9764,209.1108,433.2242,203.5933,427.748,211.7793" style="stroke: #A80036; stroke-width: 1.0;"/><!--link Node E: 7.10 to OX DB--><path d="M659.675,148.202 C591.837,169.6732 486.979,202.862 432.355,220.1514 " fill="none" id="Node E: 7.10-OX DB" style="stroke: #A80036; stroke-width: 1.0;"/><polygon fill="#A80036" points="427.549,221.6726,437.3365,222.7707,432.316,220.164,434.9227,215.1435,427.549,221.6726" style="stroke: #A80036; stroke-width: 1.0;"/><!--
@startuml
rectangle "Main Load Balancer"

node "Node A: 7.10"
node "Node B: 7.10"
node "Node C: 7.10"
node "Node D: 7.10"
node "Node E: 7.10"

database "OX DB"

[Main Load Balancer] - -> [Node A: 7.10]
[Main Load Balancer] - -> [Node B: 7.10]
[Main Load Balancer] - -> [Node C: 7.10]
[Main Load Balancer] - -> [Node D: 7.10]
[Main Load Balancer] - -> [Node E: 7.10]

[Node A: 7.10] - -> [OX DB]
[Node B: 7.10] - -> [OX DB]
[Node C: 7.10] - -> [OX DB]
[Node D: 7.10] - -> [OX DB]
[Node E: 7.10] - -> [OX DB]

@enduml

PlantUML version 1.2017.14(Mon Jun 05 11:56:32 CEST 2017)
(GPL source distribution)
Java Runtime: Java(TM) SE Runtime Environment
JVM: Java HotSpot(TM) 64-Bit Server VM
Java Version: 1.8.0_121-b13
Operating System: Mac OS X
OS Version: 10.12.6
Default Encoding: UTF-8
Language: en
Country: US
--></g></svg>