<?xml version="1.0" encoding="UTF-8" standalone="no"?>
<!DOCTYPE svg PUBLIC "-//W3C//DTD SVG 1.0//EN"
 "http://www.w3.org/TR/2001/REC-SVG-20010904/DTD/svg10.dtd" [
 <!ATTLIST svg xmlns:xlink CDATA #FIXED "http://www.w3.org/1999/xlink">
]>
<!-- Generated by Graphviz version 2.16 (Fri Feb  8 12:52:03 UTC 2008)
     For user: (d7) d7,,, -->
<!-- Title: finite_state_machine Pages: 1 -->
<svg width="576pt" height="203pt"
 viewBox="0.00 0.00 576.00 203.16" xmlns="http://www.w3.org/2000/svg" xmlns:xlink="http://www.w3.org/1999/xlink">
<g id="graph0" class="graph" transform="scale(0.55814 0.55814) rotate(0) translate(4 359.708)">
<title>finite_state_machine</title>
<polygon style="fill:white;stroke:white;" points="-4,4 -4,-359.708 1028,-359.708 1028,4 -4,4"/>
<text text-anchor="middle" x="512" y="-35.25" style="font-family:Times New Roman;font-size:20.00;">This diagramm shows the finite state machine used by this plugin to analyse the mysql dump.</text>
<text text-anchor="middle" x="512" y="-10.5" style="font-family:Times New Roman;font-size:20.00;"> Note that this diagramm is not complete but contains a rough overview</text>
<!-- 0 -->
<g id="node1" class="node"><title>0</title>
<ellipse style="fill:none;stroke:black;" cx="19" cy="-183" rx="17.8879" ry="18.3848"/>
<text text-anchor="middle" x="19" y="-179.4" style="font-family:Times New Roman;font-size:14.00;">0</text>
</g>
<!-- 1 -->
<g id="node3" class="node"><title>1</title>
<ellipse style="fill:none;stroke:black;" cx="146" cy="-249" rx="17.8879" ry="18.3848"/>
<text text-anchor="middle" x="146" y="-245.4" style="font-family:Times New Roman;font-size:14.00;">1</text>
</g>
<!-- 0&#45;&gt;1 -->
<g id="edge2" class="edge"><title>0&#45;&gt;1</title>
<path style="fill:none;stroke:black;" d="M26,-200C33,-211 43,-227 56,-235 74,-246 98,-249 117,-250"/>
<polygon style="fill:black;stroke:black;" points="117,-253.5 127,-250 117,-246.5 117,-253.5"/>
<text text-anchor="middle" x="64" y="-245.4" style="font-family:Times New Roman;font-size:14.00;">&#39;&#45;&#39;</text>
</g>
<!-- 1&#45;&gt;0 -->
<g id="edge20" class="edge"><title>1&#45;&gt;0</title>
<path style="fill:none;stroke:black;" d="M130,-240C115,-232 92,-220 72,-210 63,-206 53,-201 44,-196"/>
<polygon style="fill:black;stroke:black;" points="45.4414,-192.797 35,-191 42.0418,-198.916 45.4414,-192.797"/>
<text text-anchor="middle" x="64" y="-215.4" style="font-family:Times New Roman;font-size:14.00;">&#39;\n&#39;</text>
</g>
<!-- 2 -->
<g id="node5" class="node"><title>2</title>
<ellipse style="fill:none;stroke:black;" cx="376" cy="-159" rx="17.8879" ry="18.3848"/>
<text text-anchor="middle" x="376" y="-155.4" style="font-family:Times New Roman;font-size:14.00;">2</text>
</g>
<!-- 1&#45;&gt;2 -->
<g id="edge4" class="edge"><title>1&#45;&gt;2</title>
<path style="fill:none;stroke:black;" d="M163,-241C178,-235 200,-225 220,-217 265,-199 318,-180 349,-169"/>
<polygon style="fill:black;stroke:black;" points="351.015,-171.964 359,-165 348.415,-165.464 351.015,-171.964"/>
<text text-anchor="middle" x="225" y="-222.4" style="font-family:Times New Roman;font-size:14.00;">&#39;&#45;&#39;</text>
</g>
<!-- 3 -->
<g id="node7" class="node"><title>3</title>
<ellipse style="fill:none;stroke:black;" cx="791" cy="-223" rx="17.8879" ry="18.3848"/>
<text text-anchor="middle" x="791" y="-219.4" style="font-family:Times New Roman;font-size:14.00;">3</text>
</g>
<!-- 1&#45;&gt;3 -->
<g id="edge12" class="edge"><title>1&#45;&gt;3</title>
<path style="fill:none;stroke:black;" d="M164,-254C184,-259 218,-268 248,-271 472,-294 550,-356 754,-263 762,-259 769,-253 775,-246"/>
<polygon style="fill:black;stroke:black;" points="777.8,-248.1 781,-238 772.2,-243.9 777.8,-248.1"/>
<text text-anchor="middle" x="376" y="-313.4" style="font-family:Times New Roman;font-size:14.00;">Alle Zeichen ohne &#39;&#45;&#39; und &#39;\n&#39; und oldstate == 3</text>
</g>
<!-- 2&#45;&gt;0 -->
<g id="edge22" class="edge"><title>2&#45;&gt;0</title>
<path style="fill:none;stroke:black;" d="M357,-160C299,-164 119,-177 48,-181"/>
<polygon style="fill:black;stroke:black;" points="47.6021,-177.522 38,-182 48.2987,-184.488 47.6021,-177.522"/>
<text text-anchor="middle" x="146" y="-185.4" style="font-family:Times New Roman;font-size:14.00;">Datenbank gefunden</text>
</g>
<!-- 2&#45;&gt;0 -->
<g id="edge18" class="edge"><title>2&#45;&gt;0</title>
<path style="fill:none;stroke:black;" d="M358,-154C312,-143 189,-117 90,-143 73,-148 56,-157 43,-166"/>
<polygon style="fill:black;stroke:black;" points="40.3791,-163.541 34,-172 44.262,-169.365 40.3791,-163.541"/>
<text text-anchor="middle" x="146" y="-151.4" style="font-family:Times New Roman;font-size:14.00;">&#39;\n&#39;</text>
</g>
<!-- 2&#45;&gt;2 -->
<g id="edge16" class="edge"><title>2&#45;&gt;2</title>
<path style="fill:none;stroke:black;" d="M359,-167C340,-179 346,-195 376,-195 401,-195 409,-184 401,-174"/>
<polygon style="fill:black;stroke:black;" points="402.831,-170.951 393,-167 398.221,-176.219 402.831,-170.951"/>
<text text-anchor="middle" x="376" y="-200.4" style="font-family:Times New Roman;font-size:14.00;">&#39; &#39;</text>
</g>
<!-- 2&#45;&gt;3 -->
<g id="edge6" class="edge"><title>2&#45;&gt;3</title>
<path style="fill:none;stroke:black;" d="M395,-161C423,-165 477,-171 522,-176 626,-188 657,-165 754,-199 759,-201 763,-203 768,-206"/>
<polygon style="fill:black;stroke:black;" points="766.559,-209.203 777,-211 769.958,-203.084 766.559,-209.203"/>
<text text-anchor="middle" x="638" y="-222.4" style="font-family:Times New Roman;font-size:14.00;">Tabelle gefunden und nicht mysql </text>
<text text-anchor="middle" x="638" y="-204.4" style="font-family:Times New Roman;font-size:14.00;"> oder information_schema Datenbank</text>
</g>
<!-- 5 -->
<g id="node18" class="node"><title>5</title>
<ellipse style="fill:none;stroke:black;" cx="791" cy="-139" rx="17.8879" ry="18.3848"/>
<text text-anchor="middle" x="791" y="-135.4" style="font-family:Times New Roman;font-size:14.00;">5</text>
</g>
<!-- 2&#45;&gt;5 -->
<g id="edge24" class="edge"><title>2&#45;&gt;5</title>
<path style="fill:none;stroke:black;" d="M394,-156C422,-152 476,-144 522,-140 609,-134 713,-137 762,-138"/>
<polygon style="fill:black;stroke:black;" points="762,-141.5 772,-138 762,-134.5 762,-141.5"/>
<text text-anchor="middle" x="638" y="-163.4" style="font-family:Times New Roman;font-size:14.00;">Dump gefunden und Datenbank != mysql </text>
<text text-anchor="middle" x="638" y="-145.4" style="font-family:Times New Roman;font-size:14.00;"> oder information_schema</text>
</g>
<!-- 3&#45;&gt;1 -->
<g id="edge14" class="edge"><title>3&#45;&gt;1</title>
<path style="fill:none;stroke:black;" d="M774,-230C768,-232 761,-234 754,-235 699,-244 305,-244 248,-246 223,-247 195,-248 175,-248"/>
<polygon style="fill:black;stroke:black;" points="175,-244.5 165,-248 175,-251.5 175,-244.5"/>
<text text-anchor="middle" x="376" y="-251.4" style="font-family:Times New Roman;font-size:14.00;">&#39;&#45;&#39; und oldstate == 3</text>
</g>
<!-- 4 -->
<g id="node9" class="node"><title>4</title>
<ellipse style="fill:none;stroke:black;" cx="1005" cy="-99" rx="17.8879" ry="18.3848"/>
<text text-anchor="middle" x="1005" y="-95.4" style="font-family:Times New Roman;font-size:14.00;">4</text>
</g>
<!-- 3&#45;&gt;4 -->
<g id="edge8" class="edge"><title>3&#45;&gt;4</title>
<path style="fill:none;stroke:black;" d="M807,-214C844,-193 936,-139 980,-113"/>
<polygon style="fill:black;stroke:black;" points="981.958,-115.916 989,-108 978.559,-109.797 981.958,-115.916"/>
<text text-anchor="middle" x="898" y="-225.4" style="font-family:Times New Roman;font-size:14.00;">Create gefunden </text>
<text text-anchor="middle" x="898" y="-207.4" style="font-family:Times New Roman;font-size:14.00;"> &#39;C&#39; gesehen und &#39;REATE&#39;</text>
</g>
<!-- 4&#45;&gt;0 -->
<g id="edge10" class="edge"><title>4&#45;&gt;0</title>
<path style="fill:none;stroke:black;" d="M987,-97C950,-92 864,-83 791,-83 146,-83 146,-83 146,-83 98,-83 57,-129 35,-158"/>
<polygon style="fill:black;stroke:black;" points="31.6349,-156.738 29,-167 37.4592,-160.621 31.6349,-156.738"/>
<text text-anchor="middle" x="376" y="-106.4" style="font-family:Times New Roman;font-size:14.00;">&#39;(&#39; &#39;) ENGINE&#39; zwischendurch wird </text>
<text text-anchor="middle" x="376" y="-88.4" style="font-family:Times New Roman;font-size:14.00;"> noch cid&#45;suche betrieben</text>
</g>
</g>
</svg>
